<svg width="25" height="25" viewBox="0 0 25 25" fill="none" xmlns="http://www.w3.org/2000/svg">
<path fill-rule="evenodd" clip-rule="evenodd" d="M13.6133 4.34477L13.7131 4.23172C14.1457 3.79914 14.8264 3.76586 15.2971 4.13189L15.4101 4.23172L23.8102 12.6317L23.8598 12.6845L23.926 12.7659L24.012 12.8994L24.0762 13.0346L24.1186 13.1611L24.1533 13.3385L24.1616 13.4802L24.1583 13.5705L24.1373 13.7211L24.1019 13.8548L24.0492 13.9881L23.9864 14.1051L23.898 14.2308L23.8102 14.3288L15.4101 22.7288C14.9415 23.1974 14.1817 23.1974 13.7131 22.7288C13.2805 22.2962 13.2472 21.6155 13.6133 21.1448L13.7131 21.0317L20.0624 14.6802H1.36162C0.698879 14.6802 0.161621 14.143 0.161621 13.4802C0.161621 12.8175 0.698879 12.2802 1.36162 12.2802H20.0648L13.7131 5.92878C13.2805 5.4962 13.2472 4.81552 13.6133 4.34477L13.7131 4.23172L13.6133 4.34477Z" fill="#ED3034"/>
</svg>
