<svg width="48" height="48" viewBox="0 0 48 48" fill="none" xmlns="http://www.w3.org/2000/svg">
<circle cx="24" cy="24" r="24" fill="#FAFBFC"/>
<mask id="mask0" mask-type="alpha" maskUnits="userSpaceOnUse" x="21" y="17" width="7" height="14">
<path d="M27.2525 24.0056H25.2901V31H22.3823V24.0056H21V21.5335H22.3823V19.9346C22.3823 18.7894 22.9264 17 25.3168 17L27.4716 17.0083V19.4079H25.9077C25.6531 19.4079 25.2911 19.5352 25.2911 20.0813V21.534H27.5066L27.2525 24.0056Z" fill="white"/>
</mask>
<g mask="url(#mask0)">
<path d="M27.2525 24.0056H25.2901V31H22.3823V24.0056H21V21.5335H22.3823V19.9346C22.3823 18.7894 22.9264 17 25.3168 17L27.4716 17.0083V19.4079H25.9077C25.6531 19.4079 25.2911 19.5352 25.2911 20.0813V21.534H27.5066L27.2525 24.0056Z" fill="#C83213"/>
<path d="M36 12H12V36H36V12Z" fill="#C83213"/>
</g>
</svg>
