<svg width="16" height="23" viewBox="0 0 16 23" fill="none" xmlns="http://www.w3.org/2000/svg">
<path d="M12.1638 1.38163C12.681 1.38163 13.1672 1.62072 13.4978 2.03763C13.6885 2.27817 13.9841 2.78655 13.8197 3.48883C13.6702 4.12804 13.1802 4.61804 12.5411 4.76753L9.85229 5.39659L10.4813 2.70779C10.6309 2.06865 11.1208 1.57865 11.76 1.42916C11.8947 1.39766 12.0305 1.38163 12.1635 1.38163H12.1638ZM12.1635 7.90417e-09C11.9289 7.90417e-09 11.6883 0.0270102 11.4453 0.0838644C10.2992 0.352039 9.40422 1.24692 9.13612 2.39313L8 7.24894L12.8559 6.1129C14.002 5.84472 14.8969 4.94984 15.1651 3.80364C15.6312 1.81104 14.0877 -0.000138155 12.1635 7.90417e-09Z" fill="#69EBFC"/>
<path d="M3.83634 1.38163C3.96932 1.38163 4.10514 1.39759 4.23984 1.42916C4.87906 1.57872 5.36899 2.06865 5.51855 2.70786L6.1476 5.39666L3.45881 4.7676C2.81966 4.61804 2.32967 4.12811 2.18011 3.4889C2.01583 2.78655 2.31123 2.27824 2.50203 2.0377C2.83265 1.62079 3.31899 1.38163 3.83634 1.38163ZM3.83634 0C1.91221 0 0.368649 1.81098 0.834812 3.80364C1.10299 4.94977 1.99787 5.84472 3.144 6.1129L7.99989 7.24894L6.86377 2.39313C6.59567 1.24699 5.70071 0.352039 4.55458 0.0838644C4.31155 0.0270102 4.07101 0 3.83634 0Z" fill="#69EBFC"/>
<path d="M9.13612 3.08394C9.40422 1.93781 10.2992 1.04286 11.4453 0.774681C11.6883 0.717827 11.9289 0.690885 12.1635 0.690816C13.7376 0.690747 15.0562 1.90285 15.229 3.43481C15.438 1.59295 13.9682 -0.000138154 12.1635 8.98615e-09C11.9289 8.98615e-09 11.6883 0.0270102 11.4453 0.0838644C10.2992 0.352039 9.40422 1.24692 9.13612 2.39313L8 7.24894L9.13612 3.08394Z" fill="#A1F1FC"/>
<path d="M6.86374 3.08394C6.59563 1.93781 5.70068 1.04286 4.55455 0.774681C4.31152 0.717827 4.07098 0.690885 3.83631 0.690816C2.26228 0.690747 0.943653 1.90285 0.770811 3.43481C0.561908 1.59295 2.03169 -0.000138154 3.83631 8.98615e-09C4.07098 8.98615e-09 4.31152 0.0270102 4.55455 0.0838644C5.70068 0.352039 6.59563 1.24692 6.86374 2.39313L7.99986 7.24894L6.86374 3.08394Z" fill="#A1F1FC"/>
<path d="M8.64949 4.47339H7.35062C6.82435 4.47339 6.39771 4.90004 6.39771 5.4263V5.47017C6.39771 5.99643 6.82435 6.42308 7.35062 6.42308H8.64949C9.17575 6.42308 9.6024 5.99643 9.6024 5.47017V5.4263C9.6024 4.89997 9.17575 4.47339 8.64949 4.47339Z" fill="#69EBFC"/>
<path d="M13.8047 22.3986H2.19507C1.45133 22.3986 0.848389 21.7957 0.848389 21.0519V8.09546H15.1515V21.0519C15.1515 21.7957 14.5485 22.3986 13.8047 22.3986Z" fill="#6770E6"/>
<path d="M13.8047 20.9739H2.19507C1.45133 20.9739 0.848389 20.3709 0.848389 19.6272V21.0088C0.848389 21.7526 1.45133 22.3555 2.19507 22.3555H13.8048C14.5486 22.3555 15.1515 21.7526 15.1515 21.0088V19.6272C15.1515 20.3709 14.5485 20.9739 13.8047 20.9739Z" fill="#3745A0"/>
<path d="M15.1515 8.82129H0.848389V10.3148H15.1515V8.82129Z" fill="#3745A0"/>
<path d="M14.9966 8.82137H1.00334C0.449239 8.82137 0 8.37221 0 7.81803V7.40202C0 6.84792 0.44917 6.39868 1.00334 6.39868H14.9966C15.5507 6.39868 15.9999 6.84785 15.9999 7.40202V7.81803C15.9999 8.37221 15.5507 8.82137 14.9966 8.82137Z" fill="#6770E6"/>
<path d="M14.9965 6.35547H1.00327C0.44917 6.35547 0 6.80464 0 7.35874V7.77475C0 7.82152 0.00428362 7.86711 0.010501 7.91215C0.0776483 7.42319 0.495938 7.04622 1.00334 7.04622H14.9967C15.5041 7.04622 15.9224 7.42319 15.9895 7.91215C15.9957 7.86711 16 7.82152 16 7.77475V7.35874C15.9999 6.80471 15.5506 6.35547 14.9965 6.35547Z" fill="#8F95E6"/>
<path d="M8.95246 6.35547H7.04712V22.3554H8.95246V6.35547Z" fill="#69EBFC"/>
<path d="M8.95246 8.77808H7.04712V10.2716H8.95246V8.77808Z" fill="#47C1BF"/>
<path d="M8.9527 21.0168H7.04736V22.3985H8.9527V21.0168Z" fill="#47C1BF"/>
<path d="M8.64942 4.47339H7.35055C6.82428 4.47339 6.39771 4.90004 6.39771 5.42623V5.4701C6.39771 5.58381 6.41864 5.6924 6.45525 5.79361C6.58782 5.42685 6.93813 5.16421 7.35062 5.16421H8.64949C9.06198 5.16421 9.41229 5.42685 9.54486 5.79361C9.5814 5.69247 9.6024 5.58388 9.6024 5.4701V5.42623C9.60233 4.90004 9.17569 4.47339 8.64942 4.47339Z" fill="#A1F1FC"/>
</svg>