<svg width="24" height="24" viewBox="0 0 24 24" fill="none" xmlns="http://www.w3.org/2000/svg">
<mask id="mask0" mask-type="alpha" maskUnits="userSpaceOnUse" x="0" y="0" width="24" height="24">
<rect width="24" height="24" rx="12" fill="white"/>
</mask>
<g mask="url(#mask0)">
<rect x="5.14258" y="9.14453" width="13.7143" height="20" rx="3" fill="#ED7960" fill-opacity="0.3"/>
<path fill-rule="evenodd" clip-rule="evenodd" d="M6.85728 8.28564C5.59492 8.28564 4.57157 9.30899 4.57157 10.5714V28.8571C4.57157 30.1194 5.59492 31.1428 6.85728 31.1428H17.143C18.4054 31.1428 19.4287 30.1194 19.4287 28.8571V10.5714C19.4287 9.30899 18.4054 8.28564 17.143 8.28564H6.85728ZM7.07153 9.14111H16.9287C17.836 9.14111 18.5715 9.88843 18.5715 10.8103V28.6148C18.5715 29.5367 17.836 30.284 16.9287 30.284H7.07153C6.16421 30.284 5.42868 29.5367 5.42868 28.6148V10.8103C5.42868 9.88843 6.16421 9.14111 7.07153 9.14111ZM4.5001 10.856H4.57153V15.9988H4.5001C4.22396 15.9988 4.0001 15.775 4.0001 15.4988V11.356C4.0001 11.0798 4.22396 10.856 4.5001 10.856Z" fill="#FFF4F2"/>
</g>
<rect x="1" y="1" width="22" height="22" rx="11" stroke="#F4F5FA" stroke-width="2"/>
</svg>
