<svg width="48" height="48" viewBox="0 0 48 48" fill="none" xmlns="http://www.w3.org/2000/svg">
<circle cx="24" cy="24" r="24" fill="#FAFBFC"/>
<mask id="mask0" mask-type="alpha" maskUnits="userSpaceOnUse" x="17" y="17" width="14" height="14">
<path d="M28.2936 17C29.7859 17 30.9995 18.2131 30.9995 19.7054V28.2941C30.9995 29.7869 29.7859 31 28.2941 31H19.7054C18.2131 31 17 29.7869 17 28.2941V19.7054C17 18.2131 18.2131 17 19.7054 17H28.2936ZM20.453 22.563H18.3634V28.2941C18.3634 29.0348 18.9647 29.6347 19.7049 29.6347H28.2931C29.0323 29.6347 29.6347 29.0348 29.6347 28.2941V22.563H27.544C27.7259 23.0062 27.8286 23.4916 27.8286 23.9993C27.8286 26.1097 26.1112 27.8281 23.9998 27.8281C21.8883 27.8281 20.1714 26.1097 20.1714 23.9993C20.1714 23.4916 20.2726 23.0062 20.453 22.563ZM24.0007 21.5353C23.1783 21.5353 22.451 21.9418 22.0023 22.5625C21.7108 22.9671 21.5368 23.4623 21.5363 23.9988C21.5348 25.3577 22.6409 26.4632 23.9993 26.4632C25.3572 26.4632 26.4642 25.3582 26.4642 23.9993C26.4642 23.4628 26.2887 22.9676 25.9982 22.563C25.5505 21.9423 24.8227 21.5353 24.0007 21.5353ZM29.3798 18.6122L29.071 18.6132L27.0066 18.6197L27.0145 20.9929L29.3798 20.985V18.6122Z" fill="white"/>
</mask>
<g mask="url(#mask0)">
<path d="M28.2936 17C29.7859 17 30.9995 18.2131 30.9995 19.7054V28.2941C30.9995 29.7869 29.7859 31 28.2941 31H19.7054C18.2131 31 17 29.7869 17 28.2941V19.7054C17 18.2131 18.2131 17 19.7054 17H28.2936ZM20.453 22.563H18.3634V28.2941C18.3634 29.0348 18.9647 29.6347 19.7049 29.6347H28.2931C29.0323 29.6347 29.6347 29.0348 29.6347 28.2941V22.563H27.544C27.7259 23.0062 27.8286 23.4916 27.8286 23.9993C27.8286 26.1097 26.1112 27.8281 23.9998 27.8281C21.8883 27.8281 20.1714 26.1097 20.1714 23.9993C20.1714 23.4916 20.2726 23.0062 20.453 22.563ZM24.0007 21.5353C23.1783 21.5353 22.451 21.9418 22.0023 22.5625C21.7108 22.9671 21.5368 23.4623 21.5363 23.9988C21.5348 25.3577 22.6409 26.4632 23.9993 26.4632C25.3572 26.4632 26.4642 25.3582 26.4642 23.9993C26.4642 23.4628 26.2887 22.9676 25.9982 22.563C25.5505 21.9423 24.8227 21.5353 24.0007 21.5353ZM29.3798 18.6122L29.071 18.6132L27.0066 18.6197L27.0145 20.9929L29.3798 20.985V18.6122Z" fill="black"/>
<path d="M36 12H12V36H36V12Z" fill="#C83213"/>
</g>
</svg>
