<svg width="48" height="48" viewBox="0 0 48 48" fill="none" xmlns="http://www.w3.org/2000/svg">
<circle cx="24" cy="24" r="24" fill="#FAFBFC"/>
<mask id="mask0" mask-type="alpha" maskUnits="userSpaceOnUse" x="17" y="18" width="14" height="13">
<path d="M27.2469 22.0222C29.1657 22.0222 30.6042 23.2759 30.6042 25.9697V31H27.6878V26.3068C27.6878 25.1284 27.2667 24.3236 26.2107 24.3236C25.4049 24.3236 24.9262 24.8654 24.7147 25.39C24.638 25.5775 24.6182 25.8378 24.6182 26.1008V30.9998H21.7015L21.702 30.8983C21.7064 29.9716 21.738 22.9962 21.7015 22.2282H24.6184V23.4712C25.006 22.8748 25.6972 22.0222 27.2469 22.0222ZM20.0889 22.2282V31H17.1733V22.2282H20.0889ZM18.6504 18C19.6483 18 20.2614 18.6549 20.2808 19.5153C20.2808 20.3575 19.6483 21.0313 18.631 21.0313H18.6121C17.6338 21.0313 17 20.3575 17 19.5153C17 18.6549 17.6527 18 18.6504 18Z" fill="white"/>
</mask>
<g mask="url(#mask0)">
<path d="M27.2469 22.0222C29.1657 22.0222 30.6042 23.2759 30.6042 25.9697V31H27.6878V26.3068C27.6878 25.1284 27.2667 24.3236 26.2107 24.3236C25.4049 24.3236 24.9262 24.8654 24.7147 25.39C24.638 25.5775 24.6182 25.8378 24.6182 26.1008V30.9998H21.7015L21.702 30.8983C21.7064 29.9716 21.738 22.9962 21.7015 22.2282H24.6184V23.4712C25.006 22.8748 25.6972 22.0222 27.2469 22.0222ZM20.0889 22.2282V31H17.1733V22.2282H20.0889ZM18.6504 18C19.6483 18 20.2614 18.6549 20.2808 19.5153C20.2808 20.3575 19.6483 21.0313 18.631 21.0313H18.6121C17.6338 21.0313 17 20.3575 17 19.5153C17 18.6549 17.6527 18 18.6504 18Z" fill="#C83213"/>
<path d="M36 12H12V36H36V12Z" fill="#C83213"/>
</g>
</svg>
