<svg width="48" height="48" viewBox="0 0 48 48" fill="none" xmlns="http://www.w3.org/2000/svg">
<circle cx="24" cy="24" r="24" fill="#FAFBFC"/>
<mask id="mask0" mask-type="alpha" maskUnits="userSpaceOnUse" x="14" y="16" width="21" height="16">
<path d="M30.5076 18.4929L30.4704 18.4681C29.7014 17.7363 28.7961 17.3891 27.7543 17.4387L27.7171 17.3643L27.7419 17.3519C28.6844 17.141 29.2426 16.9178 29.4162 16.6697C29.4658 16.4713 29.4038 16.3597 29.1929 16.3349C28.7217 16.3969 28.2752 16.4961 27.8907 16.6573C28.3868 16.3349 28.5728 16.1116 28.4612 16C27.9775 16.0124 27.4442 16.2605 26.8985 16.7565C27.0969 16.4093 27.1838 16.2108 27.1341 16.186C26.8613 16.3597 26.638 16.5581 26.4396 16.7689C26.0179 17.2402 25.6831 17.6743 25.4226 18.0712L25.4102 18.096C24.7529 19.175 24.2816 20.254 24.0087 21.3578L23.9095 21.4447L23.8847 21.4571C23.4878 20.961 23.0041 20.5393 22.4336 20.2044C21.7639 19.7579 20.9701 19.3486 20.0524 18.9394C19.0602 18.4185 18.0432 17.9968 17.0262 17.6619C17.0138 18.8153 17.5843 19.7207 18.6881 20.3905V20.4029C18.3036 20.4029 17.9192 20.4649 17.5471 20.5765C17.6215 21.6431 18.378 22.3748 19.8043 22.7717L19.7919 22.7965C19.2338 22.7593 18.7749 22.9577 18.4153 23.367C18.8865 24.2848 19.7175 24.7189 20.9205 24.6941C20.6849 24.8181 20.4989 24.9421 20.3748 25.091C20.1516 25.3266 20.0772 25.5995 20.1516 25.9095C20.412 26.3808 20.8709 26.5917 21.5531 26.5544L21.5903 26.6041L21.5779 26.6289C20.3996 27.8443 18.9734 28.39 17.3114 28.2784L17.2866 28.2908C16.2696 28.2784 15.1782 27.7947 14 26.8273C15.1782 28.5264 16.7533 29.7543 18.7005 30.5356C20.9205 31.2674 23.153 31.3294 25.373 30.6968H25.4102C27.5682 30.0767 29.3914 28.7869 30.9045 26.8521C31.599 25.8475 32.0331 24.8801 32.2067 23.9499C33.3353 23.9871 34.1415 23.6647 34.65 22.9701L34.6376 22.9453C34.2531 23.0818 33.5214 23.0446 32.4424 22.8213V22.6973C33.633 22.5609 34.3399 22.1764 34.5632 21.5439C33.7322 21.8663 32.9137 21.8787 32.1075 21.5687C31.9587 20.4525 31.4254 19.4231 30.5076 18.4929Z" fill="white"/>
</mask>
<g mask="url(#mask0)">
<path d="M30.5076 18.4929L30.4704 18.4681C29.7014 17.7363 28.7961 17.3891 27.7543 17.4387L27.7171 17.3643L27.7419 17.3519C28.6844 17.141 29.2426 16.9178 29.4162 16.6697C29.4658 16.4713 29.4038 16.3597 29.1929 16.3349C28.7217 16.3969 28.2752 16.4961 27.8907 16.6573C28.3868 16.3349 28.5728 16.1116 28.4612 16C27.9775 16.0124 27.4442 16.2605 26.8985 16.7565C27.0969 16.4093 27.1838 16.2108 27.1341 16.186C26.8613 16.3597 26.638 16.5581 26.4396 16.7689C26.0179 17.2402 25.6831 17.6743 25.4226 18.0712L25.4102 18.096C24.7529 19.175 24.2816 20.254 24.0087 21.3578L23.9095 21.4447L23.8847 21.4571C23.4878 20.961 23.0041 20.5393 22.4336 20.2044C21.7639 19.7579 20.9701 19.3486 20.0524 18.9394C19.0602 18.4185 18.0432 17.9968 17.0262 17.6619C17.0138 18.8153 17.5843 19.7207 18.6881 20.3905V20.4029C18.3036 20.4029 17.9192 20.4649 17.5471 20.5765C17.6215 21.6431 18.378 22.3748 19.8043 22.7717L19.7919 22.7965C19.2338 22.7593 18.7749 22.9577 18.4153 23.367C18.8865 24.2848 19.7175 24.7189 20.9205 24.6941C20.6849 24.8181 20.4989 24.9421 20.3748 25.091C20.1516 25.3266 20.0772 25.5995 20.1516 25.9095C20.412 26.3808 20.8709 26.5917 21.5531 26.5544L21.5903 26.6041L21.5779 26.6289C20.3996 27.8443 18.9734 28.39 17.3114 28.2784L17.2866 28.2908C16.2696 28.2784 15.1782 27.7947 14 26.8273C15.1782 28.5264 16.7533 29.7543 18.7005 30.5356C20.9205 31.2674 23.153 31.3294 25.373 30.6968H25.4102C27.5682 30.0767 29.3914 28.7869 30.9045 26.8521C31.599 25.8475 32.0331 24.8801 32.2067 23.9499C33.3353 23.9871 34.1415 23.6647 34.65 22.9701L34.6376 22.9453C34.2531 23.0818 33.5214 23.0446 32.4424 22.8213V22.6973C33.633 22.5609 34.3399 22.1764 34.5632 21.5439C33.7322 21.8663 32.9137 21.8787 32.1075 21.5687C31.9587 20.4525 31.4254 19.4231 30.5076 18.4929Z" fill="#C83213"/>
<path d="M36 12H12V36H36V12Z" fill="#C83213"/>
</g>
</svg>
