<svg width="147" height="40" viewBox="0 0 147 40" fill="none" xmlns="http://www.w3.org/2000/svg">
<path fill-rule="evenodd" clip-rule="evenodd" d="M0 33.0623C0 32.4756 0.48316 32 1.09016 32H107.28C107.882 32 108.37 32.4765 108.37 33.0623V38.9377C108.37 39.5244 107.887 40 107.28 40H1.09016C0.48808 40 0 39.5235 0 38.9377V33.0623Z" fill="#C3C5CC"/>
<path fill-rule="evenodd" clip-rule="evenodd" d="M0 17.0623C0 16.4756 0.48934 16 1.08837 16H145.912C146.513 16 147 16.4765 147 17.0623V22.9377C147 23.5244 146.511 24 145.912 24H1.08837C0.487278 24 0 23.5235 0 22.9377V17.0623Z" fill="#C3C5CC"/>
<path fill-rule="evenodd" clip-rule="evenodd" d="M0 1.06234C0 0.475625 0.490244 0 1.08887 0H117.486C118.088 0 118.575 0.476479 118.575 1.06234V6.93766C118.575 7.52438 118.085 8 117.486 8H1.08887C0.487503 8 0 7.52352 0 6.93766V1.06234Z" fill="#C3C5CC"/>
</svg>
