<svg width="262" height="155" viewBox="0 0 262 155" fill="none" xmlns="http://www.w3.org/2000/svg">
<path fill-rule="evenodd" clip-rule="evenodd" d="M62.0036 93.0883C63.3432 95.5375 65.7435 96.9997 68.4245 96.9997H68.4245C71.4648 96.9997 74.2992 95.2754 75.8214 92.4998L79.3828 86.0059H61.6496C60.6783 88.2882 60.7962 90.8807 62.0036 93.0883Z" fill="#C2D1D9"/>
<path fill-rule="evenodd" clip-rule="evenodd" d="M91.7553 92.4937C93.2769 95.2731 96.1125 96.9997 99.1555 96.9997H99.1573C101.838 96.9997 104.24 95.5377 105.58 93.0888C106.788 90.8819 106.908 88.289 105.938 86.0059H88.2036L91.7553 92.4937Z" fill="#C2D1D9"/>
<path fill-rule="evenodd" clip-rule="evenodd" d="M104.366 83.0513L97.9982 71.4219H69.5904L63.2222 83.0513H104.366Z" fill="#C2D1D9"/>
<path fill-rule="evenodd" clip-rule="evenodd" d="M84.1397 57H83.4629C79.78 57 76.3481 59.0893 74.5062 62.4525L71.21 68.4663H96.3825L93.0956 62.4513C91.2544 59.0893 87.8224 57 84.1397 57Z" fill="#C2D1D9"/>
<path fill-rule="evenodd" clip-rule="evenodd" d="M118.162 81.4826C118.162 79.1585 119.138 77.4439 120.98 76.6819C121.811 76.339 123.256 76.1485 125.315 76.1485H126.399C127.302 76.1485 128.097 76.1866 128.82 76.2628V74.0911C128.82 71.3098 127.483 70.3573 124.448 70.3573C123.184 70.3573 121.955 70.5477 120.727 70.9288C120.185 71.0812 119.896 71.0812 119.788 70.624L119.607 69.8238C119.463 69.3666 119.571 69.0999 120.005 68.9856C121.558 68.4903 123.112 68.2236 124.629 68.2236C129.253 68.2236 131.168 69.8619 131.168 73.8244V86.8548C131.168 87.1596 131.096 87.2358 130.77 87.2358H129.578C129.253 87.2358 129.109 87.1215 129.109 86.8548L129.036 85.5594H128.964C128.169 86.8929 126.905 87.5787 125.135 87.5787H123.328C121.739 87.5787 120.294 87.0834 119.463 86.207C118.596 85.2927 118.162 84.1116 118.162 82.6256V81.4826ZM120.546 82.3208C120.546 83.502 120.799 84.302 121.305 84.7974C121.775 85.2546 122.497 85.4831 123.509 85.4831H124.99C127.411 85.4831 128.82 84.1116 128.82 81.5207V78.3584C128.242 78.2822 127.519 78.2441 126.652 78.2441H124.629C123.112 78.2441 122.064 78.5108 121.45 79.0061C120.836 79.5014 120.546 80.3396 120.546 81.5207V82.3208Z" fill="#C2D1D9"/>
<path fill-rule="evenodd" clip-rule="evenodd" d="M136.081 61.8605C136.081 61.5938 136.226 61.4414 136.515 61.4414H137.996C138.285 61.4414 138.429 61.5938 138.429 61.8605V82.2442C138.429 83.6158 138.465 84.073 138.754 84.6445C138.935 84.9112 139.369 85.0636 140.055 85.0636H141.03C141.247 85.0636 141.464 85.1016 141.464 85.4826V86.7781C141.464 87.0829 141.356 87.2353 141.103 87.2353H139.73C138.429 87.2353 137.49 86.9305 136.948 86.359C136.37 85.7113 136.081 84.5302 136.081 82.8538V61.8605Z" fill="#C2D1D9"/>
<path fill-rule="evenodd" clip-rule="evenodd" d="M145.004 63.5373C145.004 62.3181 145.654 61.7466 146.666 61.7466H146.81C147.858 61.7466 148.4 62.3562 148.4 63.5373V63.7659C148.4 64.9851 147.786 65.5947 146.81 65.5947H146.666C145.474 65.5947 145.004 65.0232 145.004 63.7659V63.5373ZM145.546 68.9856C145.546 68.7189 145.69 68.5665 145.979 68.5665H147.461C147.75 68.5665 147.894 68.7189 147.894 68.9856V86.9307C147.894 87.1212 147.786 87.2355 147.569 87.2355H145.835C145.654 87.2355 145.546 87.1212 145.546 86.9307V68.9856Z" fill="#C2D1D9"/>
<path fill-rule="evenodd" clip-rule="evenodd" d="M152.482 77.2153C152.482 70.4716 154.613 68.2236 159.418 68.2236C161.73 68.2236 163.356 68.9856 164.332 70.5097H164.404L164.584 69.0237C164.621 68.7189 164.801 68.5665 165.126 68.5665H165.993C166.391 68.5665 166.499 68.6427 166.499 69.0618V93.5604C166.499 93.8272 166.391 93.9795 166.138 93.9795H164.512C164.259 93.9795 164.151 93.8272 164.151 93.5604V85.5593H164.079C163.067 86.8929 161.478 87.5787 159.31 87.5787C154.397 87.5787 152.482 85.1021 152.482 79.0061V77.2153ZM154.866 78.8155C154.866 81.4064 155.264 83.1971 156.059 84.1496C156.817 85.064 157.829 85.4451 159.599 85.4451C162.489 85.4451 164.151 83.8829 164.151 80.873V75.2341C164.151 72.148 162.489 70.3573 159.454 70.3573C157.865 70.3573 156.926 70.7002 156.203 71.5003C155.3 72.529 154.866 74.5483 154.866 77.5582V78.8155Z" fill="#C2D1D9"/>
<path fill-rule="evenodd" clip-rule="evenodd" d="M171.195 69.176C171.195 68.8331 171.412 68.5664 171.701 68.5664H173.038C173.363 68.5664 173.544 68.7569 173.544 69.0998V81.5587C173.544 83.0826 173.796 83.9209 174.483 84.5305C175.097 85.1401 176.181 85.4449 177.734 85.4449C179.215 85.4449 180.335 85.1019 181.058 84.378C181.672 83.7685 181.889 83.0826 181.889 81.5587V69.0617C181.889 68.7569 182.069 68.5664 182.322 68.5664H183.84C184.093 68.5664 184.237 68.7188 184.237 69.0617V81.8634C184.237 83.8065 183.695 85.2544 182.648 86.2069C181.6 87.1594 180.191 87.5785 177.734 87.5785C175.494 87.5785 173.869 87.1213 172.821 86.2069C171.737 85.2544 171.195 83.8065 171.195 81.8634V69.176Z" fill="#C2D1D9"/>
<path fill-rule="evenodd" clip-rule="evenodd" d="M187.994 81.4826C187.994 79.1585 188.97 77.4439 190.812 76.6819C191.643 76.339 193.088 76.1485 195.147 76.1485H196.231C197.134 76.1485 197.929 76.1866 198.652 76.2628V74.0911C198.652 71.3098 197.315 70.3573 194.28 70.3573C193.016 70.3573 191.787 70.5477 190.559 70.9288C190.017 71.0812 189.728 71.0812 189.62 70.624L189.439 69.8238C189.295 69.3666 189.403 69.0999 189.837 68.9856C191.39 68.4903 192.944 68.2236 194.461 68.2236C199.085 68.2236 201 69.8619 201 73.8244V86.8548C201 87.1596 200.928 87.2358 200.602 87.2358H199.41C199.085 87.2358 198.941 87.1215 198.941 86.8548L198.868 85.5594H198.796C198.001 86.8929 196.737 87.5787 194.967 87.5787H193.16C191.571 87.5787 190.126 87.0834 189.295 86.207C188.428 85.2927 187.994 84.1116 187.994 82.6256V81.4826ZM190.379 82.3208C190.379 83.502 190.631 84.302 191.137 84.7974C191.607 85.2546 192.329 85.4831 193.341 85.4831H194.822C197.243 85.4831 198.652 84.1116 198.652 81.5207V78.3584C198.074 78.2822 197.351 78.2441 196.484 78.2441H194.461C192.944 78.2441 191.896 78.5108 191.282 79.0061C190.668 79.5014 190.379 80.3396 190.379 81.5207V82.3208Z" fill="#C2D1D9"/>
</svg>
