<svg width="136" height="48" viewBox="0 0 136 48" fill="none" xmlns="http://www.w3.org/2000/svg">
<rect width="136" height="48" rx="8" fill="#25282B"/>
<path d="M60.9656 24.1082C62.0161 24.1082 62.893 24.4961 63.5945 25.2728C64.2979 26.0504 64.6487 27.0727 64.6487 28.3405C64.6487 29.7568 64.2394 30.8763 63.421 31.6981C62.6879 32.4296 61.7776 32.795 60.691 32.795C59.518 32.795 58.6755 32.401 58.1623 31.613H58.1252V35.9998H56.1468V27.0206C56.1468 26.1302 56.1218 25.2164 56.0735 24.2792H57.8134L57.9238 25.5991H57.961C58.6207 24.6046 59.622 24.1082 60.9656 24.1082ZM71.2083 24.1082C72.2578 24.1082 73.1347 24.4961 73.8381 25.2728C74.5387 26.0504 74.8904 27.0727 74.8904 28.3405C74.8904 29.7568 74.4812 30.8763 73.6618 31.6981C72.9297 32.4296 72.0193 32.795 70.9327 32.795C69.7598 32.795 68.9172 32.401 68.405 31.613H68.3679V35.9998H66.3895V27.0206C66.3895 26.1302 66.3644 25.2164 66.3162 24.2792H68.0561L68.1665 25.5991H68.2036C68.8625 24.6046 69.8637 24.1082 71.2083 24.1082ZM98.4324 24.1091C99.7389 24.1091 100.79 24.5144 101.584 25.3258C102.343 26.1129 102.721 27.1291 102.721 28.3744C102.721 29.6544 102.33 30.7053 101.548 31.5271C100.729 32.3732 99.6415 32.795 98.2858 32.795C96.9792 32.795 95.939 32.3897 95.1632 31.5792C94.3875 30.7686 93.9996 29.7455 93.9996 28.5124C93.9996 27.2219 94.3986 26.1649 95.1994 25.3431C95.9984 24.5204 97.0767 24.1091 98.4324 24.1091ZM83.0628 20.8887C84.1866 20.8887 85.1201 21.0718 85.8652 21.4371L85.3706 22.9454C84.6747 22.5913 83.8878 22.4143 83.0071 22.4143C82.3112 22.4143 81.7674 22.5748 81.3777 22.8942C81.0483 23.1797 80.8831 23.5277 80.8831 23.9399C80.8831 24.3963 81.0714 24.7738 81.4501 25.0706C81.7795 25.3449 82.378 25.6416 83.2466 25.9619C84.3091 26.3619 85.0895 26.8297 85.5915 27.366C86.0916 27.9005 86.3413 28.5696 86.3413 29.368C86.3413 30.3504 85.9766 31.1496 85.2444 31.7666C84.4399 32.4409 83.3199 32.7776 81.8806 32.7776C80.5518 32.7776 79.4865 32.5381 78.6801 32.0582L79.1385 30.5161C80.0071 31.0073 80.9601 31.2538 81.9985 31.2538C82.7436 31.2538 83.3236 31.0958 83.7402 30.7817C84.155 30.4675 84.3619 30.0458 84.3619 29.5199C84.3619 29.0513 84.1912 28.6564 83.8488 28.3362C83.5082 28.016 82.9394 27.7183 82.1451 27.4432C79.983 26.6891 78.9028 25.5844 78.9028 24.1317C78.9028 23.1823 79.2814 22.4039 80.0396 21.7981C80.7949 21.1915 81.8027 20.8887 83.0628 20.8887ZM90.7017 22.2043V24.2775H92.8823V25.6677H90.7017V29.7108C90.7017 30.7391 91.0858 31.2529 91.856 31.2529C92.2096 31.2529 92.5028 31.2242 92.7348 31.167L92.7896 32.5719C92.3998 32.7082 91.8867 32.7768 91.251 32.7768C90.4697 32.7768 89.8591 32.5537 89.4183 32.1085C88.9794 31.6625 88.7586 30.9144 88.7586 29.8635V25.6659H87.4594V24.2775H88.7586V22.7527L90.7017 22.2043ZM114.3 24.0926C115.584 24.0926 116.555 24.5378 117.215 25.4282C117.737 26.1354 118 27.0102 118 28.0489C118 28.3804 117.977 28.6599 117.928 28.8881H111.992C112.016 29.7108 112.302 30.34 112.854 30.7739C113.354 31.1618 114.001 31.3562 114.795 31.3562C115.674 31.3562 116.475 31.2251 117.196 30.9622L117.506 32.2465C116.664 32.5902 115.669 32.7611 114.521 32.7611C113.14 32.7611 112.057 32.381 111.268 31.6217C110.481 30.8624 110.086 29.8427 110.086 28.5636C110.086 27.3078 110.453 26.2621 111.187 25.4282C111.955 24.5378 112.994 24.0926 114.3 24.0926ZM50.4307 21.0579L54.4255 32.6067H52.3181L51.1637 29.2144H47.1513L46.0517 32.6067H44L47.9753 21.0579H50.4307ZM108.657 24.1082C108.84 24.1082 109.005 24.1204 109.152 24.1421V25.9063C108.956 25.8725 108.747 25.8551 108.528 25.8551C107.832 25.8551 107.294 26.1007 106.916 26.5928C106.586 27.0267 106.421 27.5751 106.421 28.2373V32.6067H104.444L104.462 26.9017C104.462 25.9419 104.437 25.068 104.388 24.2801H106.111L106.184 25.8734H106.238C106.447 25.3258 106.776 24.8849 107.227 24.5543C107.668 24.2566 108.144 24.1082 108.657 24.1082ZM98.3619 25.462C97.5666 25.462 96.9625 25.7944 96.5477 26.4583C96.1923 27.0084 96.017 27.6775 96.017 28.469C96.017 29.237 96.1923 29.8956 96.5477 30.4441C96.9755 31.1088 97.5731 31.4403 98.3442 31.4403C99.0996 31.4403 99.6925 31.1019 100.12 30.4267C100.485 29.867 100.669 29.2014 100.669 28.4342C100.669 27.6662 100.493 27.0076 100.138 26.4583C99.7232 25.7935 99.1302 25.462 98.3619 25.462ZM60.3244 25.5809C59.8363 25.5809 59.3928 25.7336 58.9965 26.0348C58.5994 26.3385 58.3396 26.7351 58.218 27.2263C58.1567 27.4554 58.1261 27.6428 58.1261 27.7903V29.1788C58.1261 29.7846 58.3247 30.2957 58.7219 30.7131C59.119 31.1305 59.635 31.3388 60.2697 31.3388C61.0148 31.3388 61.5948 31.0698 62.0096 30.5335C62.4253 29.9963 62.6332 29.2882 62.6332 28.4082C62.6332 27.5977 62.4383 26.9295 62.0467 26.4036C61.6189 25.8551 61.0445 25.5809 60.3244 25.5809ZM70.5662 25.5809C70.0771 25.5809 69.6345 25.7336 69.2374 26.0348C68.8402 26.3385 68.5813 26.7351 68.4597 27.2263C68.3994 27.4554 68.3679 27.6428 68.3679 27.7903V29.1788C68.3679 29.7846 68.5665 30.2957 68.9618 30.7131C69.3589 31.1297 69.8749 31.3388 70.5114 31.3388C71.2566 31.3388 71.8365 31.0698 72.2513 30.5335C72.667 29.9963 72.8749 29.2882 72.8749 28.4082C72.8749 27.5977 72.6791 26.9295 72.2875 26.4036C71.8597 25.8551 71.2872 25.5809 70.5662 25.5809ZM49.1492 22.6H49.1121C48.9905 23.0912 48.7947 23.8166 48.5256 24.7756L47.5002 27.7912H50.8158L49.7718 24.7756C49.6614 24.4675 49.4545 23.742 49.1492 22.6ZM114.153 25.3752C113.506 25.3752 112.98 25.626 112.578 26.1294C112.249 26.5294 112.053 27.0093 111.992 27.5682H116.113C116.126 27.0206 115.997 26.5468 115.729 26.1467C115.387 25.6321 114.861 25.3752 114.153 25.3752Z" fill="#FDFDFD"/>
<path d="M50.9275 13.5785C51.4623 13.5785 51.892 13.7533 52.2174 14.1039C52.5266 14.4444 52.6819 14.8843 52.6819 15.4219C52.6819 15.9756 52.5219 16.4292 52.202 16.785C51.8665 17.1508 51.4221 17.3333 50.8672 17.3333C50.3323 17.3333 49.9065 17.1585 49.5888 16.8072C49.2719 16.4567 49.1135 16.0145 49.1135 15.4815C49.1135 14.924 49.2766 14.4666 49.6043 14.1115C49.932 13.7564 50.3725 13.5785 50.9275 13.5785ZM68.2001 13.5785C68.7358 13.5785 69.1647 13.7533 69.4909 14.1039C69.8 14.4444 69.9554 14.8843 69.9554 15.4219C69.9554 15.9756 69.7954 16.4292 69.4754 16.785C69.14 17.1508 68.6948 17.3333 68.1406 17.3333C67.605 17.3333 67.1791 17.1585 66.8623 16.8072C66.5454 16.4567 66.3869 16.0145 66.3869 15.4815C66.3869 14.924 66.55 14.4666 66.8777 14.1115C67.2054 13.7564 67.646 13.5785 68.2001 13.5785ZM72.3931 13.5785C73.3453 13.5785 73.823 14.0748 73.823 15.0676V16.3933C73.823 16.753 73.8407 17.0393 73.8755 17.2516H73.1482L73.0879 16.837H73.0655C72.8166 17.1676 72.4619 17.3333 72.0012 17.3333C71.6573 17.3333 71.3791 17.2241 71.1696 17.0073C70.9795 16.8102 70.8844 16.5651 70.8844 16.2742C70.8844 15.8343 71.0699 15.499 71.4432 15.2669C71.8157 15.0347 72.3398 14.921 73.0145 14.9263V14.8591C73.0145 14.3849 72.7625 14.1481 72.2578 14.1481C71.8984 14.1481 71.5816 14.2375 71.3079 14.4147L71.1433 13.8893C71.4818 13.6823 71.9 13.5785 72.3931 13.5785ZM78.4495 12V16.2818C78.4495 16.6323 78.4588 16.9553 78.4781 17.2516H77.7593L77.7214 16.6735H77.699C77.4695 17.1134 77.0784 17.3333 76.5289 17.3333C76.0899 17.3333 75.7243 17.163 75.4344 16.8225C75.1446 16.4819 75.0001 16.0397 75.0001 15.4968C75.0001 14.9141 75.157 14.4422 75.4723 14.0817C75.7776 13.7457 76.1517 13.5777 76.5969 13.5777C77.0861 13.5777 77.4285 13.7404 77.6233 14.0664H77.6387V12H78.4495ZM83.6519 13.5785C84.1859 13.5785 84.6164 13.7533 84.9411 14.1039C85.2502 14.4444 85.4056 14.8843 85.4056 15.4219C85.4056 15.9756 85.2456 16.4292 84.9256 16.785C84.5902 17.1508 84.1465 17.3333 83.5908 17.3333C83.0567 17.3333 82.6309 17.1585 82.3124 16.8072C81.9955 16.4567 81.8371 16.0145 81.8371 15.4815C81.8371 14.924 82.0002 14.4666 82.3279 14.1115C82.6556 13.7564 83.0961 13.5785 83.6519 13.5785ZM94.3194 12.7553V13.651H95.2113V14.2512H94.3201V16C94.3201 16.4444 94.4786 16.6667 94.7924 16.6667C94.9377 16.6667 95.0583 16.6544 95.1533 16.6292L95.1742 17.2364C95.0142 17.2959 94.804 17.3257 94.5451 17.3257C94.2251 17.3257 93.9762 17.2295 93.7961 17.037C93.6153 16.8446 93.5256 16.5208 93.5256 16.0664V14.2512H92.9931V13.6518H93.5256V12.992L94.3194 12.7553ZM102.408 13.5716C102.932 13.5716 103.33 13.764 103.599 14.1489C103.816 14.4544 103.923 14.8324 103.923 15.2814C103.923 15.425 103.913 15.5456 103.893 15.6441H101.464C101.475 16 101.591 16.2711 101.816 16.459C102.021 16.627 102.286 16.711 102.611 16.711C102.97 16.711 103.298 16.6544 103.593 16.5407L103.72 17.0966C103.375 17.2447 102.968 17.3188 102.497 17.3188C101.933 17.3188 101.489 17.1546 101.167 16.8263C100.844 16.4979 100.684 16.0573 100.684 15.5044C100.684 14.9614 100.833 14.5094 101.134 14.1489C101.448 13.764 101.872 13.5716 102.408 13.5716ZM45.3951 12.2215C46.28 12.2215 46.947 12.4116 47.3969 12.7919C47.9008 13.2218 48.1535 13.8366 48.1535 14.6369C48.1535 15.5357 47.8807 16.2123 47.3358 16.6667C46.8311 17.0859 46.1139 17.2959 45.1848 17.2959C44.7242 17.2959 44.33 17.2761 44 17.2364V12.3253C44.4305 12.2566 44.8942 12.2215 45.3951 12.2215ZM54.3073 13.6518L54.7193 15.3631C54.819 15.7679 54.9009 16.1535 54.9666 16.5185H54.9813C55.0416 16.2176 55.1413 15.8343 55.282 15.3708L55.799 13.6525H56.4591L56.9545 15.3341C57.0743 15.7442 57.1717 16.139 57.2467 16.5193H57.2691C57.3239 16.1489 57.4066 15.7541 57.5164 15.3341L57.9585 13.6525H58.7538V13.6518L57.6138 17.2516H56.8718L56.3996 15.6884C56.2798 15.2982 56.1824 14.9103 56.1066 14.5254H56.092C56.0216 14.921 55.9242 15.3081 55.799 15.6884L55.2974 17.2516H54.5469L53.4749 13.6518H54.3073ZM65.1866 12V17.2516H64.3774V12H65.1866ZM97.1451 12V14.1695H97.1605C97.4156 13.7747 97.7812 13.5777 98.255 13.5777C98.5904 13.5777 98.8679 13.6861 99.0881 13.9038C99.3625 14.1749 99.5001 14.5781 99.5001 15.1111V17.2516H98.6893V15.205C98.6893 14.5598 98.4451 14.2367 97.9558 14.2367C97.5802 14.2367 97.3236 14.4238 97.1829 14.798C97.159 14.8767 97.1451 14.9729 97.1451 15.0859V17.2509H96.3359V12H97.1451ZM61.6854 13.5762C62.0255 13.5762 62.3083 13.6846 62.5333 13.9023C62.8131 14.1688 62.9529 14.5666 62.9529 15.0951V17.2516H62.143V15.1898C62.143 14.5544 61.8987 14.2367 61.4087 14.2367C61.1683 14.2367 60.9743 14.3238 60.8236 14.4987C60.6744 14.6735 60.5987 14.8797 60.5987 15.1157V17.2509H59.7887V14.6804C59.7887 14.3643 59.7787 14.0214 59.7593 13.6502H60.4712L60.5091 14.2131H60.5315C60.6258 14.0382 60.7664 13.8939 60.9511 13.7785C61.1707 13.6441 61.4164 13.5762 61.6854 13.5762ZM88.4941 13.5762C88.8334 13.5762 89.1162 13.6846 89.3411 13.9023C89.6217 14.1688 89.7608 14.5666 89.7608 15.0951V17.2516H88.9516V15.1898C88.9516 14.5544 88.7074 14.2367 88.2166 14.2367C87.9762 14.2367 87.7822 14.3238 87.6323 14.4987C87.4823 14.6735 87.4074 14.8797 87.4074 15.1157V17.2509H86.5966V14.6804C86.5966 14.3643 86.5873 14.0214 86.568 13.6502H87.2791L87.3169 14.2131H87.3393C87.4344 14.0382 87.5751 13.8939 87.759 13.7785C87.9793 13.6441 88.2243 13.5762 88.4941 13.5762ZM50.8981 14.1627C50.5727 14.1627 50.3254 14.3062 50.1553 14.5934C50.01 14.8309 49.9382 15.1203 49.9382 15.4624C49.9382 15.7946 50.0108 16.0794 50.1553 16.3169C50.3308 16.604 50.575 16.7476 50.8904 16.7476C51.1995 16.7476 51.4422 16.6018 51.6169 16.3093C51.7668 16.0672 51.8418 15.7801 51.8418 15.4479C51.8418 15.1157 51.7691 14.8309 51.6246 14.5934C51.4546 14.3062 51.2127 14.1627 50.8981 14.1627ZM68.1715 14.1627C67.8454 14.1627 67.598 14.3062 67.4288 14.5934C67.2835 14.8309 67.2116 15.1203 67.2116 15.4624C67.2116 15.7946 67.2843 16.0794 67.4288 16.3169C67.6042 16.604 67.8485 16.7476 68.1638 16.7476C68.473 16.7476 68.7149 16.6018 68.8896 16.3093C69.0403 16.0672 69.1145 15.7801 69.1145 15.4479C69.1145 15.1157 69.0418 14.8309 68.8973 14.5934C68.728 14.3062 68.4853 14.1627 68.1715 14.1627ZM73.0346 15.4593C72.1411 15.4441 71.6944 15.6861 71.6944 16.1848C71.6944 16.3727 71.7454 16.5132 71.8497 16.6071C71.9541 16.701 72.087 16.7476 72.2455 16.7476C72.4232 16.7476 72.5894 16.6919 72.7409 16.5811C72.8932 16.4696 72.9867 16.3284 73.0215 16.155C73.03 16.1161 73.0346 16.0687 73.0346 16.0145V15.4593ZM83.6217 14.1627C83.2971 14.1627 83.0498 14.3062 82.879 14.5934C82.7337 14.8309 82.6618 15.1203 82.6618 15.4624C82.6618 15.7946 82.7344 16.0794 82.879 16.3169C83.0544 16.604 83.2986 16.7476 83.614 16.7476C83.9231 16.7476 84.1666 16.6018 84.3413 16.3093C84.4905 16.0672 84.5662 15.7801 84.5662 15.4479C84.5662 15.1157 84.4935 14.8309 84.349 14.5934C84.1782 14.3062 83.9371 14.1627 83.6217 14.1627ZM76.7816 14.2001C76.4794 14.2001 76.2429 14.3184 76.069 14.5559C75.8966 14.7934 75.8093 15.0966 75.8093 15.467C75.8093 15.8228 75.892 16.1115 76.0582 16.3337C76.2336 16.5704 76.4701 16.6888 76.7661 16.6888C77.032 16.6888 77.2446 16.5903 77.4061 16.3925C77.5622 16.21 77.6387 15.9901 77.6387 15.7335V15.1333C77.6387 15.0294 77.631 14.9454 77.6163 14.8813C77.5707 14.6888 77.4726 14.5269 77.3234 14.3963C77.1727 14.2658 76.991 14.2001 76.7816 14.2001ZM45.4623 12.8515C45.2073 12.8515 44.9901 12.8683 44.81 12.9034V16.6369C44.9097 16.6522 45.0921 16.659 45.3572 16.659C45.9771 16.659 46.4555 16.4887 46.7925 16.1481C47.1295 15.8076 47.2995 15.3112 47.2995 14.659C47.2995 14.0764 47.1434 13.6296 46.8311 13.3181C46.5189 13.0073 46.0629 12.8515 45.4623 12.8515ZM102.349 14.126C102.085 14.126 101.869 14.2344 101.704 14.4521C101.57 14.6254 101.49 14.8324 101.464 15.0745H103.15C103.157 14.837 103.103 14.6323 102.994 14.4597C102.853 14.2375 102.639 14.126 102.349 14.126Z" fill="#FDFDFD"/>
<path d="M33.0341 23.6998C33.009 20.9204 35.3227 19.5683 35.4285 19.5053C34.1181 17.6056 32.0871 17.346 31.3734 17.3253C29.6676 17.1468 28.0129 18.3403 27.144 18.3403C26.2577 18.3403 24.9196 17.3426 23.4774 17.3719C21.6216 17.4004 19.8854 18.4688 18.9332 20.128C16.9681 23.5109 18.4337 28.4824 20.3164 31.2169C21.2582 32.5561 22.3587 34.0514 23.7992 33.9988C25.2084 33.941 25.7348 33.1054 27.4354 33.1054C29.1204 33.1054 29.6147 33.9988 31.0838 33.9652C32.5962 33.941 33.5484 32.6199 34.4572 31.2686C35.5456 29.7336 35.9827 28.2219 36 28.1443C35.9644 28.1323 33.0627 27.031 33.0341 23.6998Z" fill="#FDFDFD"/>
<path d="M30.2595 15.5261C31.0174 14.5836 31.536 13.3013 31.392 12C30.295 12.0483 28.9231 12.7546 28.133 13.6764C27.4341 14.4887 26.8097 15.8202 26.971 17.0723C28.2033 17.1637 29.4686 16.454 30.2595 15.5261Z" fill="#FDFDFD"/>
</svg>
