<svg width="24" height="24" viewBox="0 0 24 24" fill="none" xmlns="http://www.w3.org/2000/svg">
<path fill-rule="evenodd" clip-rule="evenodd" d="M13.4516 3.46452L13.5515 3.35147C13.9841 2.91889 14.6647 2.88562 15.1355 3.25165L15.2485 3.35147L23.6485 11.7515L23.6982 11.8042L23.7644 11.8856L23.8504 12.0191L23.9145 12.1544L23.957 12.2808L23.9917 12.4583L24 12.6L23.9967 12.6903L23.9757 12.8409L23.9403 12.9746L23.8876 13.1079L23.8248 13.2249L23.7364 13.3505L23.6485 13.4485L15.2485 21.8485C14.7799 22.3172 14.0201 22.3172 13.5515 21.8485C13.1189 21.4159 13.0856 20.7353 13.4516 20.2645L13.5515 20.1515L19.9008 13.8H1.2C0.537258 13.8 0 13.2627 0 12.6C0 11.9373 0.537258 11.4 1.2 11.4H19.9032L13.5515 5.04853C13.1189 4.61595 13.0856 3.93527 13.4516 3.46452L13.5515 3.35147L13.4516 3.46452Z" fill="#ED3034"/>
</svg>
