<svg width="164" height="167" viewBox="0 0 164 167" fill="none" xmlns="http://www.w3.org/2000/svg">
<g clip-path="url(#clip0)">
<path d="M75.3997 47.4483H35.0658C34.8677 47.4481 34.6779 47.3679 34.5379 47.2254C34.3979 47.0829 34.3191 46.8898 34.3188 46.6882V36.5071C34.3191 36.3056 34.3979 36.1124 34.5379 35.9699C34.6779 35.8274 34.8677 35.7472 35.0658 35.747H75.3997C75.5977 35.7472 75.7876 35.8274 75.9276 35.9699C76.0676 36.1124 76.1464 36.3056 76.1466 36.5071V46.6882C76.1464 46.8898 76.0676 47.0829 75.9276 47.2254C75.7876 47.3679 75.5977 47.4481 75.3997 47.4483ZM35.0658 36.051C34.947 36.0512 34.833 36.0993 34.749 36.1847C34.665 36.2702 34.6177 36.3862 34.6176 36.5071V46.6882C34.6177 46.8092 34.665 46.9251 34.749 47.0106C34.833 47.0961 34.947 47.1441 35.0658 47.1443H75.3997C75.5185 47.1441 75.6324 47.0961 75.7165 47.0106C75.8005 46.9251 75.8477 46.8092 75.8479 46.6882V36.5071C75.8477 36.3862 75.8005 36.2702 75.7165 36.1848C75.6324 36.0993 75.5185 36.0512 75.3997 36.051L35.0658 36.051Z" fill="#3F3D56"/>
<path d="M41.3331 44.3031C43.0135 44.3031 44.3757 42.9169 44.3757 41.2069C44.3757 39.497 43.0135 38.1108 41.3331 38.1108C39.6527 38.1108 38.2905 39.497 38.2905 41.2069C38.2905 42.9169 39.6527 44.3031 41.3331 44.3031Z" fill="url(#paint0_radial)"/>
<path d="M48.3596 39.1429C48.2251 39.1429 48.0962 39.1972 48.0011 39.294C47.906 39.3908 47.8525 39.522 47.8525 39.6589C47.8525 39.7958 47.906 39.927 48.0011 40.0238C48.0962 40.1206 48.2251 40.1749 48.3596 40.1749H72.2656C72.4 40.1749 72.529 40.1206 72.6241 40.0238C72.7192 39.927 72.7727 39.7958 72.7727 39.6589C72.7727 39.522 72.7192 39.3908 72.6241 39.294C72.529 39.1972 72.4 39.1429 72.2656 39.1429H48.3596Z" fill="#E6E6E6"/>
<path d="M48.3596 42.239C48.2251 42.239 48.0962 42.2934 48.0011 42.3902C47.906 42.4869 47.8525 42.6182 47.8525 42.755C47.8525 42.8919 47.906 43.0231 48.0011 43.1199C48.0962 43.2167 48.2251 43.271 48.3596 43.271H58.6464C58.7131 43.2712 58.7791 43.2579 58.8408 43.232C58.9024 43.2062 58.9584 43.1682 59.0056 43.1202C59.0528 43.0723 59.0902 43.0154 59.1158 42.9527C59.1413 42.8901 59.1544 42.8229 59.1544 42.755C59.1544 42.6872 59.1413 42.62 59.1158 42.5573C59.0902 42.4947 59.0528 42.4377 59.0056 42.3898C58.9584 42.3419 58.9024 42.3039 58.8408 42.278C58.7791 42.2521 58.7131 42.2389 58.6464 42.239H48.3596Z" fill="#E6E6E6"/>
<path d="M57.889 83.7395H39.9627C39.7647 83.7393 39.5749 83.6591 39.4348 83.5166C39.2948 83.3741 39.2161 83.181 39.2158 82.9794V63.9815C39.2161 63.78 39.2948 63.5868 39.4348 63.4443C39.5749 63.3018 39.7647 63.2217 39.9627 63.2214H57.889C58.087 63.2217 58.2769 63.3018 58.4169 63.4443C58.5569 63.5868 58.6357 63.78 58.6359 63.9815V82.9794C58.6357 83.181 58.5569 83.3741 58.4169 83.5166C58.2769 83.6591 58.087 83.7393 57.889 83.7395ZM39.9627 63.5255C39.8439 63.5256 39.73 63.5737 39.646 63.6592C39.562 63.7447 39.5147 63.8606 39.5146 63.9815V82.9794C39.5147 83.1003 39.562 83.2163 39.646 83.3018C39.73 83.3873 39.8439 83.4353 39.9627 83.4355H57.889C58.0078 83.4353 58.1217 83.3873 58.2057 83.3018C58.2898 83.2163 58.337 83.1003 58.3371 82.9794V63.9815C58.337 63.8606 58.2898 63.7447 58.2057 63.6592C58.1217 63.5737 58.0078 63.5256 57.889 63.5255H39.9627Z" fill="#3F3D56"/>
<path d="M43.7825 67.1391C43.648 67.1391 43.519 67.1935 43.4239 67.2902C43.3288 67.387 43.2754 67.5183 43.2754 67.6551C43.2754 67.792 43.3288 67.9232 43.4239 68.02C43.519 68.1168 43.648 68.1711 43.7825 68.1711H54.0693C54.2038 68.1711 54.3327 68.1168 54.4278 68.02C54.5229 67.9232 54.5764 67.792 54.5764 67.6551C54.5764 67.5183 54.5229 67.387 54.4278 67.2902C54.3327 67.1935 54.2038 67.1391 54.0693 67.1391H43.7825Z" fill="#E6E6E6"/>
<path d="M43.7824 70.1794C43.7158 70.1793 43.6497 70.1926 43.5881 70.2185C43.5265 70.2443 43.4705 70.2823 43.4233 70.3303C43.3761 70.3782 43.3386 70.4351 43.3131 70.4978C43.2876 70.5604 43.2744 70.6276 43.2744 70.6955C43.2744 70.7633 43.2876 70.8305 43.3131 70.8931C43.3386 70.9558 43.3761 71.0127 43.4233 71.0607C43.4705 71.1086 43.5265 71.1466 43.5881 71.1725C43.6497 71.1983 43.7158 71.2116 43.7824 71.2115H54.0692C54.2037 71.2115 54.3327 71.1571 54.4278 71.0603C54.5229 70.9636 54.5763 70.8323 54.5763 70.6955C54.5763 70.5586 54.5229 70.4274 54.4278 70.3306C54.3327 70.2338 54.2037 70.1794 54.0692 70.1794H43.7824Z" fill="#E6E6E6"/>
<path d="M48.9258 79.8218C48.2945 79.8218 47.6774 79.6313 47.1525 79.2744C46.6276 78.9174 46.2184 78.4102 45.9769 77.8167C45.7353 77.2231 45.6721 76.5701 45.7952 75.94C45.9184 75.3099 46.2224 74.7312 46.6688 74.2769C47.1152 73.8227 47.6839 73.5133 48.3031 73.388C48.9223 73.2626 49.5641 73.327 50.1473 73.5728C50.7306 73.8187 51.2291 74.235 51.5798 74.7691C51.9305 75.3033 52.1177 75.9313 52.1177 76.5737C52.1168 77.4348 51.7802 78.2604 51.1818 78.8693C50.5834 79.4783 49.7721 79.8208 48.9258 79.8218Z" fill="url(#paint1_radial)"/>
<path d="M87.2552 20.6497H105.181C105.379 20.65 105.569 20.7301 105.709 20.8726C105.849 21.0151 105.928 21.2083 105.928 21.4098V40.4077C105.928 40.6092 105.849 40.8024 105.709 40.9449C105.569 41.0874 105.379 41.1676 105.181 41.1678H87.2552C87.0572 41.1676 86.8674 41.0874 86.7273 40.9449C86.5873 40.8024 86.5085 40.6092 86.5083 40.4077V21.4098C86.5085 21.2083 86.5873 21.0151 86.7273 20.8726C86.8674 20.7301 87.0572 20.65 87.2552 20.6497ZM105.181 40.8638C105.3 40.8636 105.414 40.8155 105.498 40.7301C105.582 40.6446 105.629 40.5286 105.63 40.4077V21.4098C105.629 21.2889 105.582 21.173 105.498 21.0875C105.414 21.002 105.3 20.9539 105.181 20.9537H87.2552C87.1364 20.9539 87.0225 21.002 86.9385 21.0875C86.8545 21.173 86.8072 21.2889 86.8071 21.4098V40.4077C86.8072 40.5286 86.8545 40.6446 86.9385 40.7301C87.0225 40.8155 87.1364 40.8636 87.2552 40.8638H105.181Z" fill="#3F3D56"/>
<path d="M101.362 37.2501C101.496 37.2501 101.625 37.1957 101.72 37.0989C101.815 37.0021 101.869 36.8709 101.869 36.734C101.869 36.5972 101.815 36.4659 101.72 36.3692C101.625 36.2724 101.496 36.218 101.362 36.218H91.075C90.9405 36.218 90.8115 36.2724 90.7164 36.3692C90.6213 36.4659 90.5679 36.5972 90.5679 36.734C90.5679 36.8709 90.6213 37.0021 90.7164 37.0989C90.8115 37.1957 90.9405 37.2501 91.075 37.2501H101.362Z" fill="#E6E6E6"/>
<path d="M101.362 34.2098C101.496 34.2098 101.625 34.1555 101.72 34.0587C101.815 33.9619 101.869 33.8307 101.869 33.6938C101.869 33.557 101.815 33.4257 101.72 33.3289C101.625 33.2322 101.496 33.1778 101.362 33.1778H91.075C90.9405 33.1778 90.8115 33.2322 90.7164 33.3289C90.6213 33.4257 90.5679 33.557 90.5679 33.6938C90.5679 33.8307 90.6213 33.9619 90.7164 34.0587C90.8115 34.1555 90.9405 34.2098 91.075 34.2098H101.362Z" fill="#E6E6E6"/>
<path d="M96.2183 24.5674C96.8496 24.5674 97.4667 24.7579 97.9916 25.1148C98.5166 25.4718 98.9257 25.979 99.1673 26.5725C99.4089 27.1661 99.4721 27.8191 99.3489 28.4492C99.2258 29.0793 98.9217 29.658 98.4753 30.1123C98.0289 30.5665 97.4602 30.8759 96.841 31.0012C96.2218 31.1266 95.5801 31.0622 94.9968 30.8164C94.4136 30.5706 93.915 30.1542 93.5643 29.6201C93.2136 29.0859 93.0264 28.458 93.0264 27.8155C93.0273 26.9544 93.3639 26.1288 93.9623 25.5199C94.5607 24.9109 95.372 24.5684 96.2183 24.5674Z" fill="url(#paint2_radial)"/>
<path d="M34.5492 59.9536C37.7213 57.4535 41.4275 55.7486 45.3675 54.977C49.3389 54.207 53.434 54.4211 57.3069 55.6013C59.2538 56.1912 61.1243 57.016 62.8786 58.058C64.6661 59.1213 66.2812 60.4303 67.8353 61.8162C69.4096 63.2202 70.9321 64.6867 72.5755 66.0084C77.2674 69.8248 83.0921 71.9099 89.0987 71.9233C89.5949 71.9241 90.0908 71.9102 90.5863 71.8815C90.8549 71.8665 90.8567 71.4393 90.5863 71.4544C84.4636 71.7975 78.4173 69.9383 73.5059 66.2023C71.8026 64.9062 70.2473 63.4242 68.6595 61.9882C67.1202 60.5959 65.5396 59.2416 63.7932 58.123C59.5214 55.3845 54.5518 53.9865 49.5043 54.1036C44.4568 54.2207 39.5549 55.8476 35.4101 58.7813C35.0161 59.0602 34.6311 59.3516 34.2524 59.6516C34.0394 59.8202 34.3384 60.1206 34.5492 59.9536V59.9536Z" fill="#3F3D56"/>
<path d="M34.3264 62.0181C35.5312 62.0181 36.5078 61.0243 36.5078 59.7983C36.5078 58.5724 35.5312 57.5786 34.3264 57.5786C33.1217 57.5786 32.145 58.5724 32.145 59.7983C32.145 61.0243 33.1217 62.0181 34.3264 62.0181Z" fill="#3F3D56"/>
<path d="M115.479 91.4909C116.684 91.4909 117.66 90.4971 117.66 89.2711C117.66 88.0452 116.684 87.0513 115.479 87.0513C114.274 87.0513 113.297 88.0452 113.297 89.2711C113.297 90.4971 114.274 91.4909 115.479 91.4909Z" fill="#3F3D56"/>
<path d="M126.907 76.6261H91.3128C91.1148 76.6259 90.925 76.5457 90.7849 76.4033C90.6449 76.2608 90.5662 76.0676 90.5659 75.8661V57.0201C90.5661 56.8186 90.6449 56.6254 90.7849 56.483C90.925 56.3405 91.1148 56.2603 91.3128 56.2601H126.907C127.105 56.2603 127.295 56.3405 127.435 56.483C127.575 56.6254 127.653 56.8186 127.654 57.0201V75.8661C127.653 76.0676 127.575 76.2608 127.435 76.4033C127.295 76.5457 127.105 76.6259 126.907 76.6261ZM91.3128 56.5641C91.194 56.5642 91.0801 56.6123 90.9961 56.6978C90.9121 56.7833 90.8648 56.8992 90.8647 57.0201V75.8661C90.8648 75.987 90.9121 76.1029 90.9961 76.1884C91.0801 76.2739 91.194 76.322 91.3128 76.3221H126.907C127.026 76.322 127.139 76.2739 127.223 76.1884C127.308 76.1029 127.355 75.987 127.355 75.8661V57.0201C127.355 56.8992 127.308 56.7833 127.223 56.6978C127.139 56.6123 127.026 56.5642 126.907 56.5641H91.3128Z" fill="#3F3D56"/>
<path d="M97.2808 66.0322C98.9612 66.0322 100.323 64.6461 100.323 62.9361C100.323 61.2262 98.9612 59.84 97.2808 59.84C95.6005 59.84 94.2383 61.2262 94.2383 62.9361C94.2383 64.6461 95.6005 66.0322 97.2808 66.0322Z" fill="url(#paint3_radial)"/>
<path d="M104.308 60.8721C104.241 60.8719 104.175 60.8852 104.113 60.9111C104.052 60.937 103.996 60.9749 103.949 61.0229C103.901 61.0708 103.864 61.1277 103.838 61.1904C103.813 61.2531 103.8 61.3202 103.8 61.3881C103.8 61.4559 103.813 61.5231 103.838 61.5858C103.864 61.6484 103.901 61.7054 103.949 61.7533C103.996 61.8012 104.052 61.8392 104.113 61.8651C104.175 61.891 104.241 61.9042 104.308 61.9041H123.474C123.608 61.9041 123.737 61.8497 123.832 61.753C123.927 61.6562 123.981 61.5249 123.981 61.3881C123.981 61.2512 123.927 61.12 123.832 61.0232C123.737 60.9264 123.608 60.8721 123.474 60.8721H104.308Z" fill="#E6E6E6"/>
<path d="M104.308 63.9682C104.241 63.9681 104.175 63.9813 104.113 64.0072C104.052 64.0331 103.996 64.0711 103.949 64.119C103.901 64.1669 103.864 64.2239 103.838 64.2865C103.813 64.3492 103.8 64.4164 103.8 64.4842C103.8 64.5521 103.813 64.6192 103.838 64.6819C103.864 64.7446 103.901 64.8015 103.949 64.8494C103.996 64.8974 104.052 64.9354 104.113 64.9612C104.175 64.9871 104.241 65.0004 104.308 65.0002H114.595C114.729 65.0002 114.858 64.9459 114.953 64.8491C115.048 64.7523 115.102 64.6211 115.102 64.4842C115.102 64.3474 115.048 64.2161 114.953 64.1193C114.858 64.0226 114.729 63.9682 114.595 63.9682H104.308Z" fill="#E6E6E6"/>
<path d="M94.9472 68.918C94.5615 68.918 94.2476 69.1495 94.2476 69.434C94.2476 69.7185 94.5615 69.95 94.9472 69.95H123.19C123.576 69.95 123.89 69.7185 123.89 69.434C123.89 69.1495 123.576 68.918 123.19 68.918H94.9472Z" fill="#E6E6E6"/>
<path d="M94.9472 72.0141C94.5615 72.0141 94.2476 72.2456 94.2476 72.5301C94.2476 72.8146 94.5615 73.0461 94.9472 73.0461H123.19C123.576 73.0461 123.89 72.8146 123.89 72.5301C123.89 72.2456 123.576 72.0141 123.19 72.0141H94.9472Z" fill="#E6E6E6"/>
<path d="M88.4516 91.3377C90.4596 90.4512 92.7016 91.224 94.5943 92.0411C95.5691 92.4618 96.5335 92.911 97.5422 93.2432C98.3909 93.522 99.26 93.7316 100.141 93.87C101.91 94.1457 103.709 94.1569 105.481 93.9032C107.261 93.6505 108.997 93.137 110.633 92.3786C112.26 91.6282 113.764 90.6275 115.093 89.4117C115.262 89.2564 115.427 89.0975 115.59 88.9351C115.783 88.7424 115.486 88.4405 115.293 88.6331C114.014 89.9018 112.546 90.9565 110.943 91.7581C109.346 92.557 107.643 93.1137 105.888 93.4104C104.127 93.7125 102.332 93.7441 100.562 93.504C99.6792 93.3825 98.8072 93.1896 97.9544 92.9271C96.9748 92.6029 96.0139 92.2231 95.0761 91.7896C93.1657 90.9547 91.0432 90.1372 88.944 90.713C88.7034 90.7806 88.468 90.8662 88.2397 90.9688C87.9926 91.078 88.206 91.4461 88.4516 91.3377V91.3377Z" fill="#3F3D56"/>
<path d="M87.6757 96.5765H70.8594L74.8168 89.6013C74.8878 89.4763 74.9898 89.3724 75.1126 89.3003C75.2355 89.2281 75.3748 89.1901 75.5167 89.1901C75.6586 89.1901 75.7979 89.2281 75.9208 89.3003C76.0436 89.3724 76.1457 89.4763 76.2166 89.6013L77.9072 92.581L80.7817 87.5145C80.8705 87.358 80.9982 87.228 81.1521 87.1376C81.3059 87.0473 81.4803 86.9997 81.658 86.9997C81.8356 86.9997 82.0101 87.0473 82.1639 87.1376C82.3177 87.228 82.4454 87.358 82.5342 87.5145L87.6757 96.5765Z" fill="url(#paint4_radial)"/>
<path d="M87.6912 96.5746H69.765C69.567 96.5744 69.3771 96.4942 69.2371 96.3517C69.0971 96.2092 69.0183 96.0161 69.0181 95.8145V85.6334C69.0183 85.4318 69.0971 85.2387 69.2371 85.0962C69.3771 84.9537 69.567 84.8735 69.765 84.8733H87.6912C87.8892 84.8735 88.0791 84.9537 88.2191 85.0962C88.3591 85.2387 88.4379 85.4318 88.4381 85.6334V95.8145C88.4379 96.0161 88.3591 96.2092 88.2191 96.3517C88.0791 96.4942 87.8892 96.5744 87.6912 96.5746ZM69.765 85.1773C69.6462 85.1775 69.5323 85.2255 69.4482 85.311C69.3642 85.3965 69.317 85.5125 69.3168 85.6334V95.8145C69.317 95.9355 69.3642 96.0514 69.4482 96.1369C69.5323 96.2224 69.6462 96.2705 69.765 96.2706H87.6912C87.81 96.2705 87.924 96.2224 88.008 96.1369C88.092 96.0514 88.1392 95.9355 88.1394 95.8145V85.6334C88.1392 85.5125 88.092 85.3965 88.008 85.311C87.924 85.2255 87.81 85.1775 87.6912 85.1773H69.765Z" fill="#3F3D56"/>
<path d="M122.851 87.6141L119.656 89.2652C118.516 89.8545 117.415 89.7538 116.994 88.5249C116.893 88.2325 116.856 87.9215 116.885 87.6131C116.914 87.3048 117.008 87.0064 117.16 86.7384C117.313 86.4704 117.521 86.2391 117.769 86.0604C118.018 85.8817 118.301 85.7597 118.601 85.7029L121.637 85.126L134.644 80.7349L142.522 75.05L145.411 79.7323L136.307 84.7311L122.851 87.6141Z" fill="#FFDEDE"/>
<path d="M137.768 142.42L135.323 142.005L135.594 137.306H138.175L137.768 142.42Z" fill="#FFDEDE"/>
<path d="M161.495 137.83L159.129 138.581L157.29 134.262L159.594 133.079L161.495 137.83Z" fill="#FFDEDE"/>
<path d="M160.177 133.713L157.189 134.957L142.929 115.884L138.447 138.274L135.459 137.721C133.542 118.418 131.979 98.7294 133.897 89.4174L144.966 88.9337L149.991 105.242L152.436 116.299L160.177 133.713Z" fill="#2F2E41"/>
<path d="M137.633 146.22C137.186 146.318 136.72 146.267 136.303 146.076L134.851 145.411C133.633 145.348 132.804 145.595 132.126 144.694C131.934 144.437 131.814 144.132 131.778 143.812C131.741 143.491 131.79 143.166 131.918 142.871C132.046 142.575 132.248 142.319 132.505 142.129C132.762 141.939 133.063 141.822 133.379 141.789L135.374 140.51L135.479 141.469C136.391 141.995 137.473 141.768 138.62 141.256L139.246 143.486C139.327 143.774 139.348 144.075 139.31 144.371C139.272 144.668 139.174 144.953 139.022 145.209C138.871 145.466 138.67 145.688 138.431 145.862C138.192 146.035 137.92 146.158 137.633 146.22Z" fill="#2F2E41"/>
<path d="M162.463 141.646C162.071 141.886 161.614 141.992 161.159 141.95L159.573 141.8C158.401 142.143 157.696 142.65 156.767 142.023C156.504 141.842 156.294 141.594 156.157 141.303C156.02 141.012 155.962 140.689 155.99 140.367C156.015 140.045 156.125 139.736 156.307 139.471C156.49 139.206 156.738 138.996 157.026 138.861L158.505 136.992L158.91 137.864C159.94 138.06 160.891 137.488 161.812 136.625L163.116 138.527C163.284 138.772 163.401 139.05 163.459 139.343C163.518 139.636 163.516 139.938 163.455 140.231C163.393 140.523 163.274 140.8 163.103 141.043C162.933 141.287 162.715 141.492 162.463 141.646Z" fill="#2F2E41"/>
<path d="M140.891 69.3082C143.592 69.3082 145.781 67.0806 145.781 64.3328C145.781 61.5849 143.592 59.3573 140.891 59.3573C138.191 59.3573 136.002 61.5849 136.002 64.3328C136.002 67.0806 138.191 69.3082 140.891 69.3082Z" fill="#FFDEDE"/>
<path d="M146.867 74.8366L140.484 73.4545L139.669 68.0644L144.151 67.097L146.867 74.8366Z" fill="#FFDEDE"/>
<path d="M145.102 89.6247H133.693L136.264 83.0549C136.078 80.7943 137.019 79.1316 138.367 77.684L140.076 73.3163C142.839 71.4662 144.921 71.6044 147.139 74.0073C149.768 77.7955 147.948 83.4902 145.102 89.6247Z" fill="url(#paint5_radial)"/>
<path d="M139.941 103.584L139.616 107.215C139.5 108.512 138.831 109.407 137.584 109.117C137.288 109.048 137.009 108.914 136.768 108.726C136.526 108.537 136.328 108.297 136.186 108.023C136.044 107.749 135.962 107.447 135.946 107.138C135.929 106.829 135.978 106.519 136.09 106.231L137.224 103.307L140.484 89.7629L139.941 79.9502H145.373L144.694 90.4539L139.941 103.584Z" fill="#FFDEDE"/>
<path d="M145.781 80.2266H139.533L139.971 76.0793C140 75.362 140.291 74.6816 140.788 74.1716C141.284 73.6617 141.95 73.3591 142.655 73.3232C143.028 73.3042 143.402 73.3608 143.753 73.4896C144.105 73.6184 144.428 73.8169 144.704 74.0737C144.98 74.3304 145.203 74.6403 145.361 74.9853C145.518 75.3304 145.607 75.7038 145.621 76.0839L145.781 80.2266Z" fill="url(#paint6_radial)"/>
<path d="M146.943 59.2169C147.958 59.2169 148.781 58.3796 148.781 57.3468C148.781 56.3139 147.958 55.4766 146.943 55.4766C145.928 55.4766 145.105 56.3139 145.105 57.3468C145.105 58.3796 145.928 59.2169 146.943 59.2169Z" fill="#2F2E41"/>
<path d="M145.049 56.8889C145.079 56.4144 145.286 55.9695 145.627 55.6448C145.968 55.32 146.419 55.1399 146.886 55.141C146.848 55.1361 146.81 55.1302 146.772 55.1276C146.285 55.0961 145.807 55.2624 145.441 55.5898C145.075 55.9173 144.852 56.3792 144.821 56.874C144.789 57.3688 144.953 57.8559 145.274 58.2284C145.596 58.6008 146.05 58.8281 146.536 58.8602C146.574 58.8627 146.612 58.8617 146.651 58.8618C146.187 58.8021 145.763 58.5647 145.466 58.1982C145.168 57.8316 145.019 57.3634 145.049 56.8889Z" fill="#2F2E41"/>
<path d="M145.039 57.6876C143.4 56.304 138.698 58.0624 138.395 58.9927C136.179 59.3 134.5 60.6159 134.5 62.9557V62.9557C135.818 63.505 137.317 63.4373 138.937 62.9557C141.519 65.0973 141.696 67.7896 140.126 70.8818L142.058 70.9211L144.453 67.3591L144.568 70.9722L148.997 70.8818V65.704C149.011 63.9824 148.622 62.2822 147.861 60.7445C147.171 59.38 146.1 58.5833 145.039 57.6876Z" fill="#2F2E41"/>
<path d="M140.914 66.8356C141.4 66.8356 141.793 66.275 141.793 65.5836C141.793 64.8921 141.4 64.3315 140.914 64.3315C140.429 64.3315 140.036 64.8921 140.036 65.5836C140.036 66.275 140.429 66.8356 140.914 66.8356Z" fill="#FFDEDE"/>
<path d="M30.3354 67.1723C30.3354 67.1723 30.8645 57.8544 33.6109 59.9716C36.3573 62.0889 32.4115 68.0364 32.4115 68.0364L30.3354 67.1723Z" fill="#FFDEDE"/>
<path d="M20.1178 94.8116C20.1178 94.8116 26.2185 101.781 22.8053 102.26C19.392 102.739 18.0493 95.6944 18.0493 95.6944L20.1178 94.8116Z" fill="#FFDEDE"/>
<path d="M12.1565 61.8216C12.9222 62.0267 13.6113 62.4574 14.1373 63.0596C14.6633 63.6619 15.0026 64.4088 15.1128 65.2067L17.0534 79.2621L19.7738 90.4739C19.7738 90.4739 21.1341 91.7197 20.59 92.4117C20.0459 93.1038 21.2701 96.0106 21.2701 96.0106L17.8695 97.1179C17.8695 97.1179 17.4614 94.2111 16.7813 94.0727C16.1836 93.9511 9.49272 75.7627 7.87995 71.3565C7.65757 70.749 7.53174 70.4035 7.53174 70.4035C7.53174 70.4035 7.80379 61.1295 12.1565 61.8216Z" fill="#575A89"/>
<path d="M12.7779 135.119L14.8666 138.886C16.4841 142.4 15.0467 143.038 11.0808 141.296L10.1768 136.849L12.7779 135.119Z" fill="#FFDEDE"/>
<path d="M13.8316 140.125C13.8316 140.125 14.8231 138.482 15.1818 138.757C15.5404 139.032 17.0196 140.224 17.0196 140.224L18.9464 142.102C18.9464 142.102 25.4561 142.802 21.3197 145.123C17.1833 147.444 14.8974 145.52 14.8974 145.52C14.8974 145.52 9.10396 145.826 9.19741 144.181C9.29086 142.537 11.1593 139.935 11.1593 139.935C11.1593 139.935 13.5141 141.541 13.8316 140.125Z" fill="#2F2E41"/>
<path d="M3.50879 92.5431L5.46698 116.654C5.46698 116.654 5.53225 131.067 7.62098 133.857C9.70972 136.647 9.77498 138.042 9.77498 138.042L14.083 135.783C14.083 135.783 11.8637 132.02 12.3206 131.444C12.6023 131.079 12.8027 130.656 12.9081 130.204L11.7332 115.326L13.9524 89.4213L3.50879 92.5431Z" fill="#2F2E41"/>
<path d="M8.86114 135.119L7.03351 140.034L2.88867 138.271L5.07536 134.588L8.86114 135.119Z" fill="#FFDEDE"/>
<path d="M5.81221 138.379C5.81221 138.379 7.36674 137.39 7.56106 137.786C7.75537 138.181 8.53263 139.862 8.53263 139.862L9.40705 142.334C9.40705 142.334 14.7507 145.794 10.1843 145.992C5.6179 146.189 4.452 143.52 4.452 143.52C4.452 143.52 -0.697364 141.246 0.0799044 139.862C0.857173 138.478 3.57759 137.042 3.57759 137.042C3.57759 137.042 4.93779 139.466 5.81221 138.379Z" fill="#2F2E41"/>
<path d="M20.0881 92.6095L21.1325 114.794C21.1325 114.794 11.6026 134.854 10.5583 135.385C10.2471 135.548 9.97121 135.774 9.74699 136.048C9.52277 136.321 9.35474 136.638 9.2528 136.979L3.50879 135.518L6.11971 131.267L11.8637 117.053C11.8637 117.053 12.7775 116.654 13.0386 115.326C13.2997 113.997 13.8219 113.997 12.5165 113.732C11.211 113.466 11.211 112.137 11.211 112.137L6.90298 91.9453L20.0881 92.6095Z" fill="#2F2E41"/>
<path d="M20.5427 53.3421C21.0047 50.4453 19.0714 47.7159 16.2248 47.2459C13.3781 46.7758 10.6959 48.743 10.2339 51.6398C9.77195 54.5366 11.7052 57.266 14.5519 57.7361C17.3986 58.2061 20.0808 56.2389 20.5427 53.3421Z" fill="#FFDEDE"/>
<path d="M10.7541 52.8231C10.7541 52.8231 10.3625 59.5981 9.84029 60.2623C9.31811 60.9265 15.3232 60.7937 15.3232 60.7937C15.3232 60.7937 14.9316 55.0814 15.3232 54.5501C15.7148 54.0187 10.7541 52.8231 10.7541 52.8231Z" fill="#FFDEDE"/>
<path d="M20.4793 94.071C20.4793 94.071 5.72758 92.7428 2.98682 94.071C2.98682 94.071 3.99577 90.2622 3.73507 89.8643C3.54546 89.5731 4.06856 78.7238 3.90435 72.4654C3.81125 68.9339 3.01052 65.4851 5.33822 62.8632C6.13049 61.9726 7.01417 61.225 7.94694 60.8598C7.94694 60.8598 7.68624 58.3361 8.99144 58.2034C8.99144 58.2034 13.9533 57.6711 15.7799 59.2663C16.3639 59.7728 16.7313 61.3163 16.7702 62.6462C15.8662 67.1699 16.1862 72.1897 17.0157 77.3973C17.0665 77.7281 17.1223 78.0606 17.1782 78.393C18.0585 83.5576 19.3891 88.8823 20.4793 94.071Z" fill="#25282B"/>
<path d="M12.6608 54.0568C13.1024 54.03 13.5336 54.1819 13.9721 54.2411C15.5411 54.4531 17.1734 53.2945 17.5198 51.7229C17.5476 51.5137 17.6089 51.3104 17.7013 51.1213C17.9427 50.7201 18.4927 50.6437 18.946 50.7359C19.3994 50.8282 19.8291 51.0441 20.2908 51.0687C21.0037 51.1068 21.6881 50.6602 22.068 50.0452C22.427 49.4108 22.5797 48.677 22.5042 47.949L22.1624 48.3139C22.0235 48.015 21.9699 47.6824 22.0077 47.354C21.8266 47.3049 21.6361 47.3039 21.4546 47.3512C21.273 47.3985 21.1064 47.4924 20.9707 47.624C20.6694 47.6566 20.8968 47.0552 20.673 46.8474C20.5641 46.7793 20.4343 46.7546 20.3086 46.778C19.6676 46.7843 19.149 46.2853 18.6438 45.8837C17.7686 45.1893 16.745 44.7142 15.6559 44.4968C14.9321 44.3531 14.1623 44.33 13.4758 44.6043C12.9216 44.8575 12.4215 45.2185 12.0035 45.6671C10.9288 46.7187 9.97703 47.9544 9.52991 49.4018C9.16641 50.5874 9.15611 51.856 9.50032 53.0475C9.68048 53.6663 10.2235 55.7855 11.0184 55.8349C12.0172 55.8969 11.4175 54.1323 12.6608 54.0568Z" fill="#2F2E41"/>
<path d="M14.8221 62.4739L16.6929 62.6779C16.6929 62.6779 18.5293 66.3035 18.396 67.0597C18.2626 67.816 17.9722 67.3568 18.7987 68.5668C19.6253 69.7767 21.9708 72.9041 22.2612 73.3632C22.5517 73.8223 30.4698 67.6747 29.9775 65.8328C29.9775 65.8328 32.4782 67.6584 33.5496 67.9014C33.5496 67.9014 25.3894 78.7917 24.2523 80.1854C23.1151 81.5791 22.1999 81.2929 20.6371 80.4665C19.0744 79.6402 11.1685 71.3977 11.1685 71.3977L14.8221 62.4739Z" fill="#25282B"/>
<path opacity="0.1" d="M17.1781 78.393L10.6758 71.7762L12.3213 71.2302L17.0156 77.3973C17.0664 77.7281 17.1223 78.0605 17.1781 78.393Z" fill="black"/>
</g>
<defs>
<radialGradient id="paint0_radial" cx="0" cy="0" r="1" gradientUnits="userSpaceOnUse" gradientTransform="translate(41.3331 41.2069) rotate(90) scale(3.09611 3.04257)">
<stop stop-color="#D44333"/>
<stop offset="1" stop-color="#B02D40"/>
</radialGradient>
<radialGradient id="paint1_radial" cx="0" cy="0" r="1" gradientUnits="userSpaceOnUse" gradientTransform="translate(48.9258 76.5737) rotate(90) scale(3.2481 3.19193)">
<stop stop-color="#D44333"/>
<stop offset="1" stop-color="#B02D40"/>
</radialGradient>
<radialGradient id="paint2_radial" cx="0" cy="0" r="1" gradientUnits="userSpaceOnUse" gradientTransform="translate(96.2183 27.8155) rotate(90) scale(3.2481 3.19194)">
<stop stop-color="#D44333"/>
<stop offset="1" stop-color="#B02D40"/>
</radialGradient>
<radialGradient id="paint3_radial" cx="0" cy="0" r="1" gradientUnits="userSpaceOnUse" gradientTransform="translate(97.2809 62.9361) rotate(90) scale(3.09611 3.04257)">
<stop stop-color="#D44333"/>
<stop offset="1" stop-color="#B02D40"/>
</radialGradient>
<radialGradient id="paint4_radial" cx="0" cy="0" r="1" gradientUnits="userSpaceOnUse" gradientTransform="translate(79.2676 91.7881) rotate(90) scale(4.78841 8.40818)">
<stop stop-color="#D44333"/>
<stop offset="1" stop-color="#B02D40"/>
</radialGradient>
<radialGradient id="paint5_radial" cx="0" cy="0" r="1" gradientUnits="userSpaceOnUse" gradientTransform="translate(141.053 80.8382) rotate(90) scale(8.78648 7.35966)">
<stop stop-color="#D44333"/>
<stop offset="1" stop-color="#B02D40"/>
</radialGradient>
<radialGradient id="paint6_radial" cx="0" cy="0" r="1" gradientUnits="userSpaceOnUse" gradientTransform="translate(142.657 76.7731) rotate(90) scale(3.45347 3.1238)">
<stop stop-color="#D44333"/>
<stop offset="1" stop-color="#B02D40"/>
</radialGradient>
<clipPath id="clip0">
<rect width="163.502" height="125.619" fill="white" transform="translate(0 20.6497)"/>
</clipPath>
</defs>
</svg>
