<svg width="262" height="155" viewBox="0 0 262 155" fill="none" xmlns="http://www.w3.org/2000/svg">
<path fill-rule="evenodd" clip-rule="evenodd" d="M99.1759 87.3174C96.3136 93.665 90.623 98 84.0852 98H67.4678V87.3174H99.1759Z" fill="#C2D1D9"/>
<path fill-rule="evenodd" clip-rule="evenodd" d="M99.1755 68.6826H66V58H84.0853C90.623 58 96.3132 62.335 99.1755 68.6826Z" fill="#C2D1D9"/>
<path fill-rule="evenodd" clip-rule="evenodd" d="M100.934 78.0005C100.934 79.6634 100.749 81.3279 100.381 82.9669H69.877V73.0342H100.381C100.749 74.6727 100.934 76.3371 100.934 78.0005Z" fill="#C2D1D9"/>
<path fill-rule="evenodd" clip-rule="evenodd" d="M123.089 67.4492V84.927H120.658L120.487 83.2267C119.677 84.702 118.376 85.202 117.096 85.202C114.004 85.202 111.68 82.8017 111.68 78.751C111.68 74.5004 113.961 72.3 117.032 72.3C118.141 72.3 119.869 73.0001 120.487 74.2753V67.4492H123.089ZM114.281 78.751C114.281 80.9014 115.604 82.3766 117.267 82.3766C118.909 82.3766 120.316 80.9764 120.316 78.751C120.316 76.6007 118.909 75.1505 117.267 75.1505C115.604 75.1505 114.281 76.5257 114.281 78.751Z" fill="#C2D1D9"/>
<path fill-rule="evenodd" clip-rule="evenodd" d="M135.948 72.6006L129.529 90.0785H126.671L128.633 84.7276L124.432 72.6006H127.46L129.06 77.9265L130.062 81.4021L131.15 78.0015L133.069 72.6006H135.948Z" fill="#C2D1D9"/>
<path fill-rule="evenodd" clip-rule="evenodd" d="M145.054 84.9275V78.4764C145.054 76.6011 144.179 75.1759 142.516 75.1759C140.917 75.1759 139.829 76.7511 139.829 78.6264V84.9275H137.249V72.5754H139.573L139.744 74.2507C140.81 73.0255 141.876 72.4004 143.198 72.4004C145.672 72.4004 147.655 74.5758 147.655 78.4514V84.9275H145.054Z" fill="#C2D1D9"/>
<path fill-rule="evenodd" clip-rule="evenodd" d="M158.232 72.6001H160.727V84.9271H158.275L158.147 83.1268C157.55 84.577 155.908 85.2771 154.735 85.3022C151.621 85.3271 149.318 83.0768 149.318 78.7511C149.318 74.5004 151.728 72.275 154.799 72.3C156.207 72.3 157.55 73.0751 158.147 74.3003L158.232 72.6001ZM151.92 78.7511C151.92 81.1015 153.306 82.5017 155.034 82.5017C159.128 82.5017 159.128 75.0255 155.034 75.0255C153.306 75.0255 151.92 76.4007 151.92 78.7511Z" fill="#C2D1D9"/>
<path fill-rule="evenodd" clip-rule="evenodd" d="M170.123 84.9276V78.3265C170.123 76.7012 169.398 75.226 167.969 75.226C166.561 75.226 165.73 76.7012 165.73 78.3265V84.9276H163.128V72.5755H165.538L165.73 74.0758C166.284 72.8256 167.5 72.3755 168.502 72.3755C169.76 72.3755 171.018 72.9756 171.615 74.6759C172.554 72.9256 173.769 72.4255 175.134 72.4255C178.12 72.4255 179.591 74.5759 179.591 78.2765V84.9276H176.99V78.2765C176.99 76.6512 176.414 75.276 175.006 75.276C173.599 75.276 172.724 76.7012 172.724 78.3265V84.9276H170.123Z" fill="#C2D1D9"/>
<path fill-rule="evenodd" clip-rule="evenodd" d="M184.868 69.1248C184.868 71.5002 181.797 71.5002 181.797 69.1248C181.797 66.7494 184.868 66.7494 184.868 69.1248ZM182.032 84.9275H184.634V72.5504H182.032V84.9275Z" fill="#C2D1D9"/>
<path fill-rule="evenodd" clip-rule="evenodd" d="M196 83.3518C194.785 84.752 193.505 85.3021 191.949 85.3021C188.899 85.3021 186.361 83.1517 186.361 78.7761C186.361 74.4004 188.899 72.25 191.949 72.25C193.441 72.25 194.593 72.7501 195.745 74.0753L194.102 76.1006C193.484 75.4505 192.716 75.1255 191.991 75.1255C190.243 75.1255 188.963 76.6257 188.963 78.7761C188.963 81.1264 190.328 82.3766 191.949 82.3766C192.78 82.3766 193.612 82.1016 194.252 81.3514L196 83.3518Z" fill="#C2D1D9"/>
</svg>
