<svg width="262" height="155" viewBox="0 0 262 155" fill="none" xmlns="http://www.w3.org/2000/svg">
<path fill-rule="evenodd" clip-rule="evenodd" d="M90.7001 58.9402L88.3893 67.8227H100.275L71 111L78.7042 80.7758H71.44L78.4839 45H115.684L106.329 58.9402H90.7001Z" fill="#C2D1D9"/>
<path fill-rule="evenodd" clip-rule="evenodd" d="M122.032 65.1602C123.386 65.1602 124.361 65.403 125.173 65.8279L124.713 69.1363C124.253 68.8935 123.603 68.7114 122.79 68.7114C121.41 68.7114 120.218 69.2577 119.974 71.0182L119.785 72.2626H123.738L123.251 75.8138H119.27L117.727 86.8317H113.963L115.534 75.8138H113.286L113.801 72.2626H116.021L116.265 70.5932C116.86 66.3136 119.595 65.1602 122.032 65.1602Z" fill="#C2D1D9"/>
<path fill-rule="evenodd" clip-rule="evenodd" d="M138.414 72.2627L136.356 86.8316H133.053L133.324 84.9498C132.213 86.3763 130.643 87.2565 128.829 87.2565C125.471 87.2565 123.765 84.5249 124.252 81.1255L125.498 72.2627H129.235L128.043 80.8523C127.745 82.8251 128.612 83.6143 129.966 83.6143C131.428 83.6143 132.647 82.6431 133.351 81.6718L134.677 72.2627H138.414Z" fill="#C2D1D9"/>
<path fill-rule="evenodd" clip-rule="evenodd" d="M145.021 93.9341C142.747 93.9341 140.824 93.3271 139.443 92.4469L139.958 88.8957C141.258 89.8973 142.855 90.3829 144.669 90.3829C146.998 90.3829 149.056 89.3206 149.462 86.4979L149.652 85.1624C148.948 86.1337 147.54 87.2567 145.238 87.2567C141.122 87.2567 139.254 83.402 139.85 79.2741C140.391 75.4498 143.099 71.8379 147.079 71.8379C149.273 71.8379 150.708 72.9003 151.52 74.5696L151.872 72.2628H155.23L153.226 86.5586C152.468 91.9005 148.839 93.9341 145.021 93.9341ZM146.294 83.7055C148.054 83.7055 149.462 82.5218 150.193 81.2166L150.708 77.6655C150.383 76.4211 149.327 75.3891 147.81 75.3891C145.563 75.3891 143.938 77.1799 143.586 79.6687C143.288 81.7933 144.236 83.7055 146.294 83.7055Z" fill="#C2D1D9"/>
<path fill-rule="evenodd" clip-rule="evenodd" d="M156.394 86.8318L158.452 72.2628H162.216L160.158 86.8318H156.394ZM160.835 69.865C159.589 69.865 158.587 68.9848 158.831 67.194C159.048 65.6764 160.077 65.0391 161.187 65.0391C162.46 65.0391 163.434 65.9496 163.191 67.7101C162.974 69.2276 161.945 69.865 160.835 69.865Z" fill="#C2D1D9"/>
<path fill-rule="evenodd" clip-rule="evenodd" d="M169.121 87.2566C165.005 87.2566 163.136 83.402 163.732 79.2741C164.274 75.4498 166.927 71.8379 170.962 71.8379C173.345 71.8379 174.753 73.2645 175.43 74.691L175.782 72.2628H179.085L177.027 86.8317H173.724L174.022 84.6767C173.02 86.1032 171.422 87.2566 169.121 87.2566ZM170.177 83.7055C171.937 83.7055 173.345 82.461 174.076 81.1559L174.59 77.7565C174.292 76.4514 173.236 75.389 171.693 75.389C169.445 75.389 167.821 77.2406 167.469 79.6383C167.171 81.7933 168.119 83.7055 170.177 83.7055Z" fill="#C2D1D9"/>
<path fill-rule="evenodd" clip-rule="evenodd" d="M187.615 67.0117L186.884 72.2626H191L190.485 75.8138H186.37L185.53 81.6414C185.313 83.1893 185.855 83.7053 187.236 83.7053C188.157 83.7053 188.969 83.5232 189.754 83.159L189.267 86.6191C188.454 87.0137 187.182 87.2565 185.882 87.2565C183.418 87.2565 181.225 85.8299 181.739 82.218L182.633 75.8138H180.439L180.954 72.2626H183.12L183.743 68.0437L187.615 67.0117Z" fill="#C2D1D9"/>
</svg>
