<svg width="136" height="48" viewBox="0 0 136 48" fill="none" xmlns="http://www.w3.org/2000/svg">
<rect width="136" height="48" rx="8" fill="#25282B"/>
<path fill-rule="evenodd" clip-rule="evenodd" d="M103.073 32.4097H104.745V21.3981H103.073V32.4097ZM118.14 25.3646L116.222 30.1388H116.165L114.175 25.3646H112.373L115.358 32.0371L113.656 35.749H115.4L120 25.3646H118.14ZM108.652 31.1588C108.106 31.1588 107.341 30.8893 107.341 30.2234C107.341 29.3742 108.293 29.0474 109.115 29.0474C109.849 29.0474 110.196 29.2042 110.643 29.4156C110.513 30.4366 109.619 31.1588 108.652 31.1588ZM108.855 25.1233C107.644 25.1233 106.39 25.6482 105.871 26.8092L107.355 27.4188C107.673 26.8092 108.263 26.611 108.884 26.611C109.749 26.611 110.628 27.121 110.643 28.0274V28.1411C110.34 27.971 109.691 27.7165 108.898 27.7165C107.297 27.7165 105.668 28.5806 105.668 30.1952C105.668 31.6689 106.981 32.6184 108.451 32.6184C109.575 32.6184 110.196 32.1225 110.584 31.5411H110.643V32.3912H112.258V28.1692C112.258 26.2146 110.772 25.1233 108.855 25.1233ZM98.517 26.7053H96.1378V22.9308H98.517C99.7676 22.9308 100.478 23.9473 100.478 24.8176C100.478 25.6711 99.7676 26.7053 98.517 26.7053ZM98.474 21.3973H94.4659V32.4097H96.1378V28.2379H98.474C100.328 28.2379 102.15 26.9184 102.15 24.8176C102.15 22.7168 100.328 21.3973 98.474 21.3973ZM76.6171 31.1606C75.4616 31.1606 74.4943 30.2102 74.4943 28.9048C74.4943 27.5844 75.4616 26.6198 76.6171 26.6198C77.7575 26.6198 78.653 27.5844 78.653 28.9048C78.653 30.2102 77.7575 31.1606 76.6171 31.1606ZM78.5374 25.9812H78.48C78.1044 25.5417 77.3818 25.1435 76.4728 25.1435C74.566 25.1435 72.8179 26.7898 72.8179 28.9048C72.8179 31.0047 74.566 32.6369 76.4728 32.6369C77.3818 32.6369 78.1044 32.2397 78.48 31.7851H78.5374V32.3242C78.5374 33.7582 77.7575 34.5237 76.5015 34.5237C75.4759 34.5237 74.8403 33.8005 74.5804 33.1901L73.1218 33.7864C73.5405 34.7791 74.6521 36 76.5015 36C78.4657 36 80.1268 34.8646 80.1268 32.097V25.3708H78.5374V25.9812ZM81.2824 32.4097H82.957V21.3981H81.2824V32.4097ZM85.4268 28.777C85.3837 27.3289 86.568 26.5916 87.4196 26.5916C88.0848 26.5916 88.6478 26.9184 88.836 27.3862L85.4268 28.777ZM90.6263 27.528C90.308 26.6912 89.3407 25.1435 87.3622 25.1435C85.3981 25.1435 83.7656 26.6621 83.7656 28.8907C83.7656 30.9906 85.3837 32.6369 87.5496 32.6369C89.2968 32.6369 90.308 31.5869 90.7276 30.9765L89.4277 30.1247C88.9938 30.7493 88.4021 31.1606 87.5496 31.1606C86.6979 31.1606 86.091 30.7774 85.702 30.0252L90.7993 27.9534L90.6263 27.528ZM50.009 26.2939V27.883H53.8791C53.7643 28.777 53.4604 29.4297 52.9988 29.8834C52.4349 30.4374 51.5537 31.0479 50.009 31.0479C47.6253 31.0479 45.7625 29.1602 45.7625 26.8189C45.7625 24.4776 47.6253 22.5891 50.009 22.5891C51.2946 22.5891 52.2332 23.0859 52.9261 23.7254L54.0674 22.604C53.0992 21.6959 51.8145 21 50.009 21C46.7441 21 44 23.6117 44 26.8189C44 30.0252 46.7441 32.6369 50.009 32.6369C51.7706 32.6369 53.0992 32.0688 54.1391 31.0047C55.2077 29.9547 55.5403 28.4784 55.5403 27.2866C55.5403 26.9184 55.5116 26.5775 55.4533 26.2939H50.009ZM59.9401 31.1606C58.7855 31.1606 57.7886 30.2243 57.7886 28.8907C57.7886 27.5421 58.7855 26.6198 59.9401 26.6198C61.0957 26.6198 62.0925 27.5421 62.0925 28.8907C62.0925 30.2243 61.0957 31.1606 59.9401 31.1606ZM59.9401 25.1435C57.8316 25.1435 56.1131 26.7194 56.1131 28.8907C56.1131 31.0479 57.8316 32.6369 59.9401 32.6369C62.0495 32.6369 63.768 31.0479 63.768 28.8907C63.768 26.7194 62.0495 25.1435 59.9401 25.1435ZM68.2898 31.1606C67.1343 31.1606 66.1374 30.2243 66.1374 28.8907C66.1374 27.5421 67.1343 26.6198 68.2898 26.6198C69.4454 26.6198 70.4414 27.5421 70.4414 28.8907C70.4414 30.2243 69.4454 31.1606 68.2898 31.1606ZM68.2898 25.1435C66.1813 25.1435 64.4628 26.7194 64.4628 28.8907C64.4628 31.0479 66.1813 32.6369 68.2898 32.6369C70.3983 32.6369 72.1169 31.0479 72.1169 28.8907C72.1169 26.7194 70.3983 25.1435 68.2898 25.1435Z" fill="#FDFDFD"/>
<path fill-rule="evenodd" clip-rule="evenodd" d="M46.728 12C47.1034 12 47.464 12.067 47.8053 12.2002C48.1475 12.3342 48.4215 12.5121 48.6271 12.7347L48.165 13.1559C47.8176 12.7778 47.3388 12.5879 46.728 12.5879C46.1748 12.5879 45.697 12.765 45.2935 13.1192C44.8901 13.4742 44.6888 13.9336 44.6888 14.5C44.6888 15.0656 44.8901 15.5258 45.2935 15.88C45.697 16.235 46.1748 16.4113 46.728 16.4113C47.3143 16.4113 47.8027 16.2334 48.1948 15.8768C48.4486 15.6447 48.5956 15.3224 48.6341 14.9076H46.728V14.3325H49.2721C49.2966 14.4577 49.3089 14.5774 49.3089 14.6938C49.3089 15.3623 49.0919 15.8944 48.6569 16.2916C48.1624 16.7639 47.5191 17 46.728 17C45.9701 17 45.325 16.7607 44.7955 16.2813C44.2643 15.8026 44 15.2084 44 14.5C44 13.7908 44.2643 13.1974 44.7955 12.7179C45.325 12.2393 45.9701 12 46.728 12ZM70.3054 12C71.0686 12 71.7083 12.2425 72.2273 12.7283C72.7454 13.2141 73.0045 13.8044 73.0045 14.5C73.0045 15.1996 72.7463 15.7907 72.2308 16.2741C71.7145 16.7583 71.073 17 70.3054 17C69.5379 17 68.8964 16.7583 68.3809 16.2741C67.8645 15.7907 67.6072 15.1996 67.6072 14.5C67.6072 13.8004 67.8645 13.2085 68.3809 12.7251C68.8964 12.2417 69.5379 12 70.3054 12ZM53.3429 12.107V12.6949H50.9519V14.2121H53.1075V14.7873H50.9519V16.3045H53.3429V16.8932H50.2771V12.107H53.3429ZM57.655 12.1067V12.6946H56.1882V16.8929H55.5134V12.6946H54.0466V12.1067H57.655ZM60.9407 12.1068V16.893H60.2659V12.1068H60.9407ZM65.4001 12.1067V12.6946H63.9332V16.8929H63.2585V12.6946H61.7917V12.1067H65.4001ZM74.7723 12.1067L77.3244 15.8296H77.3541L77.3244 14.9075V12.1067H78V16.8929H77.2955L74.6261 12.989H74.5964L74.6261 13.9119V16.8929H73.9514V12.1067H74.7723ZM70.3054 12.5879C69.7427 12.5879 69.2674 12.7674 68.8789 13.1264C68.4911 13.4845 68.296 13.9432 68.296 14.5C68.296 15.0568 68.4911 15.5147 68.8789 15.8736C69.2674 16.2326 69.7427 16.4113 70.3054 16.4113C70.8673 16.4113 71.3434 16.2326 71.732 15.8736C72.1206 15.5147 72.3157 15.0568 72.3157 14.5C72.3157 13.9432 72.1206 13.4845 71.732 13.1264C71.3434 12.7674 70.8673 12.5879 70.3054 12.5879Z" fill="#FDFDFD"/>
<path fill-rule="evenodd" clip-rule="evenodd" d="M16.4568 13.2859C16.4541 13.2884 16.4514 13.2909 16.4487 13.2934L16.4643 13.278C16.6684 13.0968 16.9298 13 17.23 13C17.5228 13 17.8528 13.0924 18.201 13.2882L30.8542 20.3875L35.0925 22.7653C36.3025 23.4444 36.3025 24.5564 35.0925 25.2363L30.8542 27.6142L30.7964 27.6457L18.201 34.7125C17.6751 35.0076 17.1909 35.0675 16.8116 34.9289C16.6832 34.882 16.5668 34.8123 16.4649 34.7213L16.4482 34.7061C16.4321 34.6911 16.4164 34.6756 16.401 34.6595C16.149 34.3969 16 33.9889 16 33.4586V14.5422C16 14.0127 16.149 13.6039 16.401 13.3404C16.4622 13.281 16.4595 13.2835 16.4568 13.2859C16.4377 13.3034 16.4191 13.3215 16.401 13.3404L27.1963 24.0004L16.401 34.6595L30.8542 20.3875L27.1963 24.0004L16.4568 13.2859Z" fill="#FDFDFD"/>
</svg>
