<svg width="488" height="564" viewBox="0 0 488 564" fill="none" xmlns="http://www.w3.org/2000/svg">
<path fill-rule="evenodd" clip-rule="evenodd" d="M736.574 0.000488281C753.772 0.00905916 765.159 0.187325 774.736 3.22108C785.734 7.23126 791.92 13.3591 795.908 24.3384C799.055 34.3073 799.371 46.016 799.371 64.2755V498.929C799.371 517.189 799.053 528.94 795.92 538.868C791.92 549.886 785.574 555.974 774.615 559.97C764.664 563.123 752.973 563.205 734.75 563.205C734.244 563.711 92.644 563.225 66.9802 563.205L66.1892 563.205C47.9647 563.205 35.5507 563.123 25.6417 559.984C14.6445 555.974 8.76028 549.846 4.77109 538.866C1.69506 529.12 1.89661 517.709 1.90708 500.137L1.90708 63.0678C1.8966 45.4953 1.69477 34.0459 4.75837 24.3365C8.76028 13.3184 14.4995 7.23126 25.4585 3.23444C35.0711 0.187775 46.3112 0.00907433 63.501 0.000488793L736.574 0.000488281Z" fill="#F2F5F7"/>
<path fill-rule="evenodd" clip-rule="evenodd" d="M732.301 5.0879C749.269 5.09644 760.505 5.27253 769.956 8.25033C780.813 12.1881 786.921 18.2052 790.857 28.9863C793.964 38.7751 794.276 50.2724 794.276 68.2021V495.007C794.276 512.937 793.963 524.476 790.87 534.224C786.92 545.044 780.655 551.021 769.836 554.945C760.344 557.937 749.247 558.112 732.277 558.121L730.48 558.121C729.971 558.628 70.4558 558.121 70.4558 558.121L69.224 558.121C51.9018 558.116 39.9836 557.971 30.426 554.958C19.5692 551.021 13.7601 545.004 9.82185 534.222C6.78586 524.654 6.98396 513.453 6.9944 496.206L6.9944 67.0031C6.98396 49.7554 6.78558 38.516 9.80929 28.9844C13.7601 18.1653 19.4261 12.1881 30.2452 8.26344C39.735 5.27179 50.8315 5.09632 67.8019 5.08789L732.301 5.0879Z" stroke="#424B5A"/>
<path fill-rule="evenodd" clip-rule="evenodd" d="M734.753 1.90779C752.78 1.90779 764.372 1.98983 773.963 5.02703C784.391 8.83053 790.32 14.5017 794.101 24.9113C797.147 34.5609 797.463 46.2118 797.463 64.2754V498.929C797.463 516.993 797.147 528.604 794.114 538.214C790.32 548.662 784.549 554.489 774.16 558.279C764.53 561.328 752.78 561.526 734.991 561.526H65.5596C47.2945 561.526 35.7015 561.328 26.1116 558.292C15.6843 554.49 10.3603 548.761 6.57713 538.351C3.53294 528.703 3.81485 516.993 3.81485 498.929V64.2754C3.81485 46.2118 3.53294 34.6016 6.56441 24.9914C10.3603 14.5431 15.8286 8.83053 26.2172 5.04038C35.8458 1.98983 47.2945 1.90779 65.3218 1.90779H734.753ZM123.425 0H65.3218C47.0973 0 35.4064 0.0813989 25.4585 3.23434C14.4995 7.23116 8.76028 13.3183 4.75837 24.3364C1.62515 34.2665 1.90746 46.0165 1.90746 64.2754V498.929C1.90746 517.189 1.62515 528.898 4.77109 538.866C8.76028 549.846 14.6445 555.974 25.6417 559.983C35.5507 563.123 47.9647 563.204 66.1892 563.204C66.1892 563.204 734.234 563.721 734.75 563.204C752.973 563.204 764.664 563.123 774.615 559.97C785.574 555.974 791.92 549.886 795.92 538.868C799.053 528.94 799.371 517.189 799.371 498.929V64.2754C799.371 46.0159 799.055 34.3072 795.908 24.3383C791.92 13.359 785.734 7.23116 774.736 3.22099C764.825 0.0813992 752.976 0 734.753 0H163.487H123.425Z" fill="#424B5A"/>
<path fill-rule="evenodd" clip-rule="evenodd" d="M37.5199 260.731C35.0614 260.731 33.0684 262.724 33.0684 265.183C33.0684 267.641 35.0614 269.634 37.5199 269.634C39.9784 269.634 41.9714 267.641 41.9714 265.183C41.9714 262.724 39.9784 260.731 37.5199 260.731Z" fill="#424B5A"/>
<path fill-rule="evenodd" clip-rule="evenodd" d="M37.5198 272.814C36.1149 272.814 34.9761 273.953 34.9761 275.358C34.9761 276.763 36.1149 277.901 37.5198 277.901C38.9247 277.901 40.0635 276.763 40.0635 275.358C40.0635 273.953 38.9247 272.814 37.5198 272.814Z" fill="#424B5A"/>
<path fill-rule="evenodd" clip-rule="evenodd" d="M75.0469 527.186H727.511V37.52H75.0469V527.186Z" fill="white"/>
<path fill-rule="evenodd" clip-rule="evenodd" d="M728.14 36.884H726.868H75.6757H74.4038V38.1559V526.55V527.822H75.6757H726.868H728.14V526.55V38.1559V36.884ZM75.6757 526.55H726.868V38.1559H75.6757V526.55Z" fill="#424B5A"/>
<path d="M420.35 264.547H382.194C380.789 264.547 379.65 265.686 379.65 267.091V297.615C379.65 299.02 380.789 300.159 382.194 300.159H420.35C421.755 300.159 422.894 299.02 422.894 297.615V267.091C422.894 265.686 421.755 264.547 420.35 264.547Z" fill="white"/>
<path d="M382.194 267.091V297.615H420.35V267.091H382.194ZM382.194 264.547H420.35C421.755 264.547 422.894 265.686 422.894 267.091V297.615C422.894 299.02 421.755 300.159 420.35 300.159H382.194C380.789 300.159 379.65 299.02 379.65 297.615V267.091C379.65 265.686 380.789 264.547 382.194 264.547Z" fill="#C2D1D9"/>
<path d="M391.415 279.809C388.781 279.809 386.646 277.674 386.646 275.04C386.646 272.406 388.781 270.27 391.415 270.27C394.049 270.27 396.184 272.406 396.184 275.04C396.184 277.674 394.049 279.809 391.415 279.809ZM391.415 277.266C392.644 277.266 393.641 276.269 393.641 275.04C393.641 273.81 392.644 272.814 391.415 272.814C390.186 272.814 389.189 273.81 389.189 275.04C389.189 276.269 390.186 277.266 391.415 277.266Z" fill="#C2D1D9"/>
<path d="M388.813 294.703C388.314 295.197 387.509 295.194 387.014 294.695C386.52 294.196 386.523 293.391 387.022 292.896L397.483 282.526L403.378 287.654C403.908 288.115 403.964 288.918 403.503 289.448C403.042 289.978 402.239 290.034 401.709 289.573L397.596 285.996L388.813 294.703Z" fill="#C2D1D9"/>
<path d="M398.356 294.699C397.859 295.196 397.054 295.196 396.557 294.699C396.06 294.202 396.06 293.397 396.557 292.9L413.296 276.159L422.461 284.2C422.989 284.664 423.041 285.467 422.578 285.995C422.115 286.523 421.311 286.576 420.783 286.112L413.41 279.643L398.356 294.699Z" fill="#C2D1D9"/>
<path d="M3.17965 42.6074H0V75.0399H3.17965V42.6074Z" fill="#424B5A"/>
</svg>
