<svg width="350" height="716" viewBox="0 0 350 716" fill="none" xmlns="http://www.w3.org/2000/svg">
<path d="M348.125 163.382L348.124 163.789L349.297 163.789C349.396 163.789 349.593 164.095 349.593 164.299V247.1C349.593 247.202 349.396 247.507 349.297 247.507L348.124 247.507L348.125 248.016H346.249V163.382H348.125Z" fill="#424B5A"/>
<path d="M3.09625 211.47V265.245H1.22069L1.2204 264.923L0.332366 264.923C0.233652 264.923 0.0362251 264.617 0.0362251 264.414V212.574C-0.0624886 212.37 0.233652 212.167 0.332366 212.167L1.2204 212.166L1.22069 211.47H3.09625Z" fill="#424B5A"/>
<path d="M3.09616 142.373V196.148H1.2206L1.2197 195.667L0.332274 195.667C0.23356 195.667 0.0361328 195.362 0.0361328 195.158V143.318C0.0361328 143.114 0.23356 142.911 0.332274 142.911L1.2197 142.91L1.2206 142.373H3.09616Z" fill="#424B5A"/>
<path d="M3.54308 92.3933V120.605H1.66752L1.66706 120.301L0.838133 120.301C0.739419 120.301 0.541992 119.996 0.541992 119.792V93.5155C0.541992 93.3118 0.739419 93.1081 0.838133 93.1081L1.66706 93.1081L1.66752 92.3933H3.54308Z" fill="#424B5A"/>
<path d="M305.454 0H44.262C21.3858 0 2.84106 18.5482 2.84106 41.4285V674.302C2.84106 697.182 21.3858 715.73 44.262 715.73H305.454C328.33 715.73 346.875 697.182 346.875 674.302V41.4285C346.875 18.5482 328.33 0 305.454 0Z" fill="#F2F5F7"/>
<path d="M44.262 2.92533C23.0011 2.92533 5.76586 20.1638 5.76586 41.4285V674.302C5.76586 695.567 23.0011 712.805 44.262 712.805H305.454C326.715 712.805 343.95 695.567 343.95 674.302V41.4285C343.95 20.1638 326.715 2.92533 305.454 2.92533H44.262ZM44.262 0H305.454C328.33 0 346.875 18.5482 346.875 41.4285V674.302C346.875 697.182 328.33 715.73 305.454 715.73H44.262C21.3858 715.73 2.84106 697.182 2.84106 674.302V41.4285C2.84106 18.5482 21.3858 0 44.262 0Z" fill="#424B5A"/>
<path d="M307.357 12.2031C292.945 12.2031 268.993 12.2031 267.572 12.2031C264.121 12.2031 261.888 14.759 261.076 19.3597C258.336 35.7175 249.404 36.8421 246.766 36.8421C244.533 36.8421 105.284 36.8421 102.95 36.8421C100.311 36.8421 91.2782 35.6153 88.6394 19.3597C87.9289 14.759 85.6961 12.2031 82.1438 12.2031C80.6214 12.2031 56.7705 12.2031 42.3585 12.2031C27.9465 12.2031 15.0569 27.5386 15.0569 42.1585C15.0569 56.7783 15.0569 658.236 15.0569 675.617C15.0569 693.712 33.3256 703.527 42.054 703.527C46.8242 703.527 302.891 703.527 307.661 703.527C316.39 703.527 334.659 693.712 334.659 675.617C334.659 658.236 334.659 50.4396 334.659 42.1585C334.76 27.5386 321.769 12.2031 307.357 12.2031Z" fill="white"/>
<path d="M204.736 330.562H146.24C144.086 330.562 142.34 332.308 142.34 334.462V381.268C142.34 383.422 144.086 385.168 146.24 385.168H204.736C206.889 385.168 208.635 383.422 208.635 381.268V334.462C208.635 332.308 206.889 330.562 204.736 330.562Z" fill="white"/>
<path d="M146.24 334.462V381.268H204.736V334.462H146.24ZM146.24 330.562H204.736C206.889 330.562 208.635 332.308 208.635 334.462V381.268C208.635 383.422 206.889 385.168 204.736 385.168H146.24C144.086 385.168 142.34 383.422 142.34 381.268V334.462C142.34 332.308 144.086 330.562 146.24 330.562Z" fill="#C2D1D9"/>
<path d="M160.376 353.965C156.338 353.965 153.064 350.69 153.064 346.651C153.064 342.612 156.338 339.338 160.376 339.338C164.414 339.338 167.688 342.612 167.688 346.651C167.688 350.69 164.414 353.965 160.376 353.965ZM160.376 350.064C162.261 350.064 163.788 348.536 163.788 346.651C163.788 344.766 162.261 343.238 160.376 343.238C158.492 343.238 156.964 344.766 156.964 346.651C156.964 348.536 158.492 350.064 160.376 350.064Z" fill="#C2D1D9"/>
<path d="M156.387 376.802C155.622 377.56 154.388 377.555 153.629 376.79C152.871 376.025 152.877 374.79 153.641 374.032L169.678 358.13L178.717 365.994C179.53 366.7 179.615 367.932 178.909 368.745C178.202 369.558 176.97 369.643 176.158 368.937L169.852 363.45L156.387 376.802Z" fill="#C2D1D9"/>
<path d="M171.017 376.796C170.255 377.558 169.021 377.558 168.259 376.796C167.498 376.035 167.498 374.8 168.259 374.038L193.922 348.368L207.971 360.698C208.781 361.408 208.861 362.641 208.151 363.45C207.441 364.26 206.209 364.34 205.399 363.63L194.096 353.71L171.017 376.796Z" fill="#C2D1D9"/>
<path d="M307.357 11.228C322.009 11.228 335.741 26.6631 335.634 42.1585V675.617C335.634 684.184 331.685 691.583 325.057 697.107C319.596 701.659 312.645 704.502 307.661 704.502H42.0541C37.0703 704.502 30.1198 701.659 24.6583 697.107C18.0307 691.583 14.082 684.184 14.082 675.617V42.1585C14.082 26.6191 27.7401 11.228 42.3586 11.228H82.1439C86.2067 11.228 88.8191 14.135 89.6018 19.2034C90.7444 26.2422 93.1485 30.8263 96.4044 33.4359C98.5939 35.1908 100.902 35.8671 102.95 35.8671H246.766C248.838 35.8671 251.099 35.2148 253.274 33.4739C256.514 30.8797 258.927 26.286 260.116 19.1902C261.01 14.1243 263.613 11.228 267.572 11.228H307.357ZM307.357 13.1782H267.572C264.693 13.1782 262.782 15.3051 262.038 19.5208C260.776 27.0537 258.135 32.0797 254.492 34.9964C251.937 37.0419 249.25 37.8173 246.766 37.8173H102.95C100.488 37.8173 97.7526 37.0156 95.1851 34.9577C91.5255 32.0247 88.8928 27.0045 87.6759 19.5085C87.0256 15.297 85.1215 13.1782 82.1439 13.1782H42.3586C28.8722 13.1782 16.0319 27.6478 16.0319 42.1585V675.617C16.0319 683.564 19.6985 690.435 25.9065 695.609C31.0365 699.884 37.5576 702.552 42.0541 702.552H307.661C312.158 702.552 318.679 699.884 323.809 695.609C330.017 690.435 333.684 683.564 333.684 675.617V44.687C333.684 42.8468 333.684 42.8468 333.684 42.1517C333.784 27.6869 320.877 13.1782 307.357 13.1782Z" fill="#424B5A"/>
<path d="M201.673 26.328C204.979 26.328 207.66 23.7086 207.66 20.4774C207.66 17.2461 204.979 14.6267 201.673 14.6267C198.366 14.6267 195.685 17.2461 195.685 20.4774C195.685 23.7086 198.366 26.328 201.673 26.328Z" fill="#424B5A"/>
<path d="M182.684 17.8179H144.999C143.53 17.8179 142.34 19.0085 142.34 20.4773C142.34 21.946 143.53 23.1367 144.999 23.1367H182.684C184.152 23.1367 185.342 21.946 185.342 20.4773C185.342 19.0085 184.152 17.8179 182.684 17.8179Z" fill="#424B5A"/>
</svg>
