<svg width="262" height="155" viewBox="0 0 262 155" fill="none" xmlns="http://www.w3.org/2000/svg">
<path fill-rule="evenodd" clip-rule="evenodd" d="M87.71 48.8556L105.9 60.6625C107.657 61.8033 108.74 63.9115 108.74 66.193V89.807C108.74 92.0885 107.657 94.1967 105.9 95.3374L87.71 107.144C85.9525 108.285 83.7873 108.285 82.0298 107.144L63.8401 95.3374C62.0826 94.1967 61 92.0885 61 89.807V66.193C61 63.9115 62.0826 61.8033 63.8401 60.6625L82.0298 48.8556C83.7873 47.7148 85.9525 47.7148 87.71 48.8556ZM84.8699 53.9785C82.3507 53.9785 80.3085 56.2745 80.3085 59.1068C80.3085 60.4316 80.7592 61.6352 81.4926 62.5452H81.4856C84.0696 65.7598 84.5967 68.7958 80.6746 72.7808H80.6852C79.4156 74.0683 78.6128 75.9264 78.6128 78C78.6128 80.0736 79.4156 81.9317 80.6852 83.2192H80.6746C84.5967 87.2041 84.0696 90.2402 81.4856 93.4547H81.4926C80.7592 94.3648 80.3085 95.5683 80.3085 96.8932C80.3085 99.7255 82.3507 102.021 84.8699 102.021C87.3891 102.021 89.4313 99.7255 89.4313 96.8932C89.4313 95.5683 88.9806 94.3648 88.2471 93.4547H88.2542C85.6702 90.2402 85.1431 87.2041 89.0652 83.2192H89.0546C90.3242 81.9317 91.127 80.0736 91.127 78C91.127 75.9264 90.3242 74.0683 89.0546 72.7808H89.0652C85.143 68.7958 85.6702 65.7598 88.2542 62.5452H88.2471C88.9806 61.6352 89.4313 60.4316 89.4313 59.1068C89.4313 56.2745 87.3891 53.9785 84.8699 53.9785ZM72.3557 64.3155C69.8365 64.3155 67.7943 66.6115 67.7943 69.4438C67.7943 70.7687 68.2451 71.9721 68.9785 72.8822H68.9715C70.3379 74.5821 71.1194 76.2332 70.9818 78C71.1194 79.7668 70.3379 81.4179 68.9715 83.1178H68.9785C68.2451 84.0278 67.7943 85.2313 67.7943 86.5562C67.7943 89.3885 69.8365 91.6845 72.3557 91.6845C74.8749 91.6845 76.9171 89.3885 76.9171 86.5562C76.9171 85.2313 76.4664 84.0278 75.733 83.1178H75.74C74.3736 81.4179 73.592 79.7668 73.7297 78C73.592 76.2332 74.3736 74.5821 75.74 72.8822H75.733C76.4664 71.9721 76.9171 70.7687 76.9171 69.4438C76.9171 66.6115 74.8749 64.3155 72.3557 64.3155ZM97.3841 64.3155C94.8649 64.3155 92.8227 66.6115 92.8227 69.4438C92.8227 70.7687 93.2734 71.9721 94.0068 72.8822H93.9998C95.3662 74.5821 96.1478 76.2332 96.0101 78C96.1478 79.7668 95.3662 81.4179 93.9998 83.1178H94.0068C93.2734 84.0278 92.8227 85.2313 92.8227 86.5562C92.8227 89.3885 94.8649 91.6845 97.3841 91.6845C99.9033 91.6845 101.945 89.3885 101.945 86.5562C101.945 85.2313 101.495 84.0278 100.761 83.1178H100.768C99.4019 81.4179 98.6204 79.7668 98.758 78C98.6204 76.2332 99.4019 74.5821 100.768 72.8822H100.761C101.495 71.9721 101.945 70.7687 101.945 69.4438C101.945 66.6115 99.9033 64.3155 97.3841 64.3155Z" fill="#C2D1D9"/>
<path fill-rule="evenodd" clip-rule="evenodd" d="M124.021 66.8682V82.1181C124.021 83.1255 124.369 83.7131 125.091 83.7131C125.588 83.7131 126.037 83.5172 126.484 83.2654L126.659 86.3714C126.061 86.6511 124.941 87.0149 123.722 87.0149C121.781 87.0149 120.536 85.9516 120.536 83.0695V66.8682H124.021Z" fill="#C2D1D9"/>
<path fill-rule="evenodd" clip-rule="evenodd" d="M141.268 82.2303C141.268 83.0697 141.467 83.7132 142.164 83.7132C142.662 83.7132 143.06 83.5174 143.483 83.2656L143.632 86.3715C142.985 86.7073 141.915 87.015 140.795 87.015C139.327 87.015 138.406 86.3435 138.032 84.8885C137.136 86.0637 135.693 86.987 133.901 86.987C130.267 86.987 127.803 83.8532 127.803 79.4601C127.803 75.011 130.267 71.8491 133.901 71.8491C135.593 71.8491 136.912 72.3808 137.784 73.3601V72.1009H141.268V82.2303ZM137.784 76.578C137.186 75.8784 136.041 75.2628 134.872 75.2628C132.706 75.2628 131.337 76.9417 131.337 79.4601C131.337 81.9224 132.731 83.6013 134.872 83.6013C136.016 83.6013 137.087 83.0137 137.784 82.2862V76.578Z" fill="#C2D1D9"/>
<path fill-rule="evenodd" clip-rule="evenodd" d="M153.14 87.0149C151.373 87.0149 150.104 86.3993 149.232 85.42V86.7351H145.748V66.8682H149.232V73.3319C150.128 72.4365 151.472 71.8489 153.14 71.8489C156.799 71.8489 159.263 74.9828 159.263 79.4039C159.263 83.825 156.799 87.0149 153.14 87.0149ZM152.169 75.2626C151 75.2626 149.904 75.8782 149.232 76.6337V82.2581C149.83 82.9296 150.95 83.6011 152.169 83.6011C154.31 83.6011 155.703 81.9223 155.703 79.4039C155.703 76.9135 154.31 75.2626 152.169 75.2626Z" fill="#C2D1D9"/>
<path fill-rule="evenodd" clip-rule="evenodd" d="M167.948 71.709C172.03 71.709 174.967 75.0108 174.967 79.46C174.967 83.8532 172.03 87.1271 167.948 87.1271C163.916 87.1271 160.979 83.8532 160.979 79.46C160.979 75.0108 163.916 71.709 167.948 71.709ZM167.948 83.5454C170.138 83.5454 171.607 81.7545 171.607 79.46C171.607 77.1095 170.138 75.2906 167.948 75.2906C165.808 75.2906 164.339 77.1095 164.339 79.46C164.339 81.7545 165.808 83.5454 167.948 83.5454Z" fill="#C2D1D9"/>
<path fill-rule="evenodd" clip-rule="evenodd" d="M178.526 76.6339C178.526 75.7665 178.351 75.1509 177.63 75.1509C177.107 75.1509 176.51 75.4307 176.31 75.5706L176.161 72.4927C176.335 72.2968 177.63 71.8491 178.998 71.8491C180.492 71.8491 181.462 72.5207 181.836 74.0596C182.458 72.6885 183.404 71.8491 185.096 71.8491C186.316 71.8491 187.261 72.3528 187.436 72.6885L186.938 76.2142C186.739 75.9064 185.743 75.4587 184.549 75.4587C182.881 75.4587 182.234 77.0816 182.01 78.7885V86.7351H178.526V76.6339Z" fill="#C2D1D9"/>
<path fill-rule="evenodd" clip-rule="evenodd" d="M200.875 85.1403C199.531 86.3716 197.615 87.1271 195.4 87.1271C190.497 87.1271 188.307 83.7692 188.307 79.46C188.307 75.0948 190.995 71.709 195.176 71.709C199.133 71.709 201 74.4232 201 77.809C201 78.7045 200.875 80.1036 200.726 80.6632H191.891C192.214 82.7059 193.384 83.8532 195.499 83.8532C197.142 83.8532 198.66 83.0977 199.556 82.3422L200.875 85.1403ZM197.665 77.1375C197.665 75.9622 196.868 74.9549 195.101 74.9549C193.235 74.9549 192.239 76.2141 191.99 77.6411H197.64C197.665 77.5012 197.665 77.2774 197.665 77.1375Z" fill="#C2D1D9"/>
</svg>
