<svg width="194" height="54" viewBox="0 0 194 54" fill="none" xmlns="http://www.w3.org/2000/svg">
<path fill-rule="evenodd" clip-rule="evenodd" d="M19 44.0469C19 43.2652 19.6376 42.6316 20.4386 42.6316H160.57C161.365 42.6316 162.009 43.2664 162.009 44.0469V51.8742C162.009 52.6558 161.371 53.2895 160.57 53.2895H20.4386C19.6441 53.2895 19 52.6547 19 51.8742V44.0469Z" fill="#C3C5CC"/>
<path fill-rule="evenodd" clip-rule="evenodd" d="M0 22.8846C0 22.103 0.645751 21.4694 1.43625 21.4694H192.55C193.344 21.4694 193.987 22.1041 193.987 22.8846V30.712C193.987 31.4936 193.341 32.1273 192.55 32.1273H1.43625C0.64303 32.1273 0 31.4925 0 30.712V22.8846Z" fill="#C3C5CC"/>
<path fill-rule="evenodd" clip-rule="evenodd" d="M19 1.41553C19 0.633889 19.6469 0.000244141 20.4369 0.000244141H174.039C174.833 0.000244141 175.476 0.635026 175.476 1.41553V9.24285C175.476 10.0245 174.829 10.6581 174.039 10.6581H20.4369C19.6433 10.6581 19 10.0234 19 9.24285V1.41553Z" fill="#C3C5CC"/>
</svg>
