<svg width="194" height="54" viewBox="0 0 194 54" fill="none" xmlns="http://www.w3.org/2000/svg">
<path fill-rule="evenodd" clip-rule="evenodd" d="M0 44.2004C0 43.4188 0.637595 42.7852 1.43861 42.7852H141.57C142.365 42.7852 143.009 43.4199 143.009 44.2004V52.0278C143.009 52.8094 142.371 53.443 141.57 53.443H1.43861C0.644088 53.443 0 52.8083 0 52.0278V44.2004Z" fill="#C3C5CC"/>
<path fill-rule="evenodd" clip-rule="evenodd" d="M0 22.8845C0 22.1029 0.645751 21.4692 1.43625 21.4692H192.55C193.344 21.4692 193.987 22.104 193.987 22.8845V30.7118C193.987 31.4935 193.341 32.1271 192.55 32.1271H1.43625C0.64303 32.1271 0 31.4923 0 30.7118V22.8845Z" fill="#C3C5CC"/>
<path fill-rule="evenodd" clip-rule="evenodd" d="M0 1.56885C0 0.78721 0.646944 0.153564 1.43691 0.153564H155.039C155.833 0.153564 156.476 0.788347 156.476 1.56885V9.39617C156.476 10.1778 155.829 10.8115 155.039 10.8115H1.43691C0.643327 10.8115 0 10.1767 0 9.39617V1.56885Z" fill="#C3C5CC"/>
</svg>
