<svg width="109" height="148" viewBox="0 0 109 148" fill="none" xmlns="http://www.w3.org/2000/svg" xmlns:xlink="http://www.w3.org/1999/xlink">
<g clip-path="url(#clip0)">
<path d="M0 54.5L7.30179 67.1489V41.856L0 54.5Z" fill="#EF4135"/>
<path d="M81.7525 101.698L89.0543 89.0542L67.1489 101.698H81.7525Z" fill="#F5333F"/>
<path d="M27.2527 7.30174L19.9509 19.9506L41.8563 7.30174H27.2527Z" fill="#EF4135"/>
<path d="M27.2527 101.698H41.8514L19.9509 89.0542L27.2527 101.698Z" fill="#EF4135"/>
<path d="M81.7525 7.30174H67.1489L89.0543 19.9457L81.7525 7.30174Z" fill="#EF4135"/>
<path d="M109 54.5L101.703 41.856V67.1489L109 54.5Z" fill="#F5333F"/>
<path d="M101.703 67.1489L89.0542 89.0543L101.703 81.7525V67.1489Z" fill="#EF4135"/>
<path d="M54.5 109L67.1488 101.698H41.8511L54.5 109Z" fill="#EF4135"/>
<path d="M7.30176 81.7525L19.9506 89.0543L7.30176 67.1489V81.7525Z" fill="#EF4135"/>
<path d="M54.5002 0L41.8562 7.30179H67.1491L54.5002 0Z" fill="#F5333F"/>
<path d="M7.30176 27.2475V41.856L19.9506 19.9507L7.30176 27.2475Z" fill="#EF4135"/>
<path d="M101.703 27.2475L89.0542 19.9457L101.703 41.856V27.2475Z" fill="#EF4135"/>
<path d="M101.703 41.856L89.0542 19.9457L67.1489 7.30174H41.856L19.9506 19.9506L7.30176 41.856V67.1488L19.9506 89.0542L41.8511 101.698H67.1489L89.0542 89.0542L101.703 67.1488V41.856Z" fill="#C10508"/>
<g style="mix-blend-mode:multiply">
<rect x="7.21802" y="8.1142" width="97.9809" height="96.5037" fill="url(#pattern0)"/>
</g>
<path d="M77.3507 84.5146L71.0435 78.8672C65.9587 82.1174 60.0423 83.8274 54.0076 83.7909C36.3169 83.781 23.6335 70.5955 23.6335 54.2981V54.1307C23.6335 37.8334 36.4941 24.4854 54.1602 24.4854C71.8263 24.4854 84.5491 37.6709 84.5491 53.9683V54.1307C84.5651 60.0074 82.7929 65.7499 79.4679 70.5955L85.3763 75.5881L77.3507 84.5146ZM71.3931 54.1307C71.3931 44.2834 64.1848 36.1151 54.0273 36.1151C43.8698 36.1151 36.829 44.1406 36.829 53.9683V54.1307C36.829 63.9781 44.0372 72.1513 54.1898 72.1513C56.7837 72.166 59.3518 71.6359 61.7279 70.5955L52.373 62.6487L60.4034 53.6384L69.8224 62.1563C70.8969 59.6714 71.4274 56.9853 71.3783 54.2784L71.3931 54.1307Z" fill="white"/>
</g>

</svg>
