<svg width="551" height="532" viewBox="0 0 551 532" fill="none" xmlns="http://www.w3.org/2000/svg">
<g clip-path="url(#clip0)">
<path d="M549.607 121.326L549.607 121.628L550.478 121.628C550.551 121.628 550.698 121.855 550.698 122.006V183.493C550.698 183.569 550.551 183.796 550.478 183.796L549.607 183.795L549.607 184.174H548.214V121.326H549.607Z" fill="#424B5A"/>
<path d="M293.394 157.035V196.968H292.001L292.001 196.728L291.341 196.728C291.268 196.728 291.121 196.502 291.121 196.35V157.855C291.048 157.703 291.268 157.552 291.341 157.552L292.001 157.552L292.001 157.035H293.394Z" fill="#424B5A"/>
<path d="M293.393 105.724V145.657H292.001L292 145.3L291.341 145.3C291.268 145.3 291.121 145.073 291.121 144.922V106.426C291.121 106.275 291.268 106.124 291.341 106.124L292 106.123L292.001 105.724H293.393Z" fill="#424B5A"/>
<path d="M293.726 68.6101V89.5596H292.333L292.333 89.334L291.717 89.334C291.644 89.334 291.497 89.1071 291.497 88.9559V69.4434C291.497 69.2921 291.644 69.1409 291.717 69.1409L292.333 69.1409L292.333 68.6101H293.726Z" fill="#424B5A"/>
<path d="M517.921 0H323.963C306.975 0 293.204 13.7736 293.204 30.7643V500.728C293.204 517.719 306.975 531.492 323.963 531.492H517.921C534.908 531.492 548.68 517.719 548.68 500.728V30.7643C548.68 13.7736 534.908 0 517.921 0Z" fill="#F2F5F7"/>
<path d="M323.963 2.17231C308.175 2.17231 295.376 14.9734 295.376 30.7643V500.728C295.376 516.519 308.175 529.32 323.963 529.32H517.921C533.709 529.32 546.508 516.519 546.508 500.728V30.7643C546.508 14.9734 533.709 2.17231 517.921 2.17231H323.963ZM323.963 0H517.921C534.908 0 548.68 13.7736 548.68 30.7643V500.728C548.68 517.719 534.908 531.492 517.921 531.492H323.963C306.975 531.492 293.204 517.719 293.204 500.728V30.7643C293.204 13.7736 306.975 0 323.963 0Z" fill="#424B5A"/>
<path d="M519.334 9.06262C508.632 9.06262 490.845 9.06262 489.79 9.06262C487.228 9.06262 485.57 10.9606 484.967 14.377C482.932 26.5241 476.299 27.3593 474.34 27.3593C472.682 27.3593 369.278 27.3593 367.544 27.3593C365.585 27.3593 358.877 26.4482 356.917 14.377C356.39 10.9606 354.732 9.06262 352.094 9.06262C350.963 9.06262 333.252 9.06262 322.55 9.06262C311.848 9.06262 302.276 20.4506 302.276 31.3071C302.276 42.1636 302.276 488.799 302.276 501.705C302.276 515.143 315.842 522.431 322.324 522.431C325.866 522.431 516.018 522.431 519.56 522.431C526.042 522.431 539.609 515.143 539.609 501.705C539.609 488.799 539.609 37.4566 539.609 31.3071C539.684 20.4506 530.036 9.06262 519.334 9.06262Z" fill="white"/>
<path d="M443.128 245.471H399.69C398.09 245.471 396.794 246.768 396.794 248.368V283.125C396.794 284.724 398.09 286.021 399.69 286.021H443.128C444.727 286.021 446.024 284.724 446.024 283.125V248.368C446.024 246.768 444.727 245.471 443.128 245.471Z" fill="white"/>
<path d="M399.69 248.368V283.125H443.128V248.368H399.69ZM399.69 245.471H443.128C444.727 245.471 446.024 246.768 446.024 248.368V283.125C446.024 284.724 444.727 286.021 443.128 286.021H399.69C398.09 286.021 396.794 284.724 396.794 283.125V248.368C396.794 246.768 398.09 245.471 399.69 245.471Z" fill="#C2D1D9"/>
<path d="M410.188 262.85C407.189 262.85 404.758 260.418 404.758 257.419C404.758 254.42 407.189 251.988 410.188 251.988C413.186 251.988 415.617 254.42 415.617 257.419C415.617 260.418 413.186 262.85 410.188 262.85ZM410.188 259.953C411.587 259.953 412.721 258.819 412.721 257.419C412.721 256.019 411.587 254.885 410.188 254.885C408.788 254.885 407.654 256.019 407.654 257.419C407.654 258.819 408.788 259.953 410.188 259.953Z" fill="#C2D1D9"/>
<path d="M407.225 279.808C406.657 280.372 405.74 280.368 405.177 279.8C404.614 279.232 404.618 278.315 405.186 277.752L417.095 265.943L423.807 271.782C424.411 272.307 424.474 273.222 423.95 273.825C423.425 274.429 422.51 274.493 421.907 273.968L417.224 269.894L407.225 279.808Z" fill="#C2D1D9"/>
<path d="M418.089 279.804C417.524 280.37 416.607 280.37 416.041 279.804C415.476 279.239 415.476 278.322 416.041 277.756L435.098 258.694L445.531 267.85C446.132 268.377 446.192 269.292 445.664 269.894C445.137 270.495 444.222 270.555 443.621 270.027L435.228 262.661L418.089 279.804Z" fill="#C2D1D9"/>
<path d="M519.334 8.33777C530.214 8.33777 540.411 19.7996 540.332 31.3063V501.704C540.332 508.067 537.399 513.561 532.478 517.663C528.422 521.043 523.261 523.155 519.56 523.155H322.323C318.622 523.155 313.461 521.043 309.405 517.663C304.484 513.561 301.551 508.067 301.551 501.704V31.3063C301.551 19.767 311.694 8.33777 322.549 8.33777H352.093C355.11 8.33777 357.05 10.4964 357.631 14.2602C358.48 19.4871 360.265 22.8912 362.683 24.829C364.309 26.1322 366.022 26.6344 367.544 26.6344H474.339C475.878 26.6344 477.557 26.15 479.172 24.8572C481.578 22.9308 483.37 19.5197 484.253 14.2504C484.917 10.4885 486.85 8.33777 489.79 8.33777H519.334ZM519.334 9.78598H489.79C487.652 9.78598 486.233 11.3653 485.68 14.4959C484.743 20.0898 482.782 23.822 480.077 25.9879C478.179 27.5068 476.184 28.0826 474.339 28.0826H367.544C365.715 28.0826 363.684 27.4873 361.777 25.9591C359.06 23.7811 357.105 20.0532 356.201 14.4868C355.718 11.3593 354.304 9.78598 352.093 9.78598H322.549C312.534 9.78598 302.999 20.5309 302.999 31.3063V501.704C302.999 507.606 305.722 512.708 310.332 516.55C314.141 519.725 318.984 521.706 322.323 521.706H519.56C522.899 521.706 527.741 519.725 531.551 516.55C536.161 512.708 538.884 507.606 538.884 501.704V33.184C538.884 31.8175 538.884 31.8175 538.884 31.3013C538.958 20.56 529.373 9.78598 519.334 9.78598Z" fill="#424B5A"/>
<path d="M440.854 19.5508C443.309 19.5508 445.3 17.6057 445.3 15.2062C445.3 12.8067 443.309 10.8616 440.854 10.8616C438.398 10.8616 436.407 12.8067 436.407 15.2062C436.407 17.6057 438.398 19.5508 440.854 19.5508Z" fill="#424B5A"/>
<path d="M426.753 13.2316H398.768C397.678 13.2316 396.794 14.1157 396.794 15.2064C396.794 16.2971 397.678 17.1812 398.768 17.1812H426.753C427.843 17.1812 428.727 16.2971 428.727 15.2064C428.727 14.1157 427.843 13.2316 426.753 13.2316Z" fill="#424B5A"/>
</g>
<g clip-path="url(#clip1)">
<path fill-rule="evenodd" clip-rule="evenodd" d="M410.228 217.579C419.806 217.584 426.148 217.683 431.482 219.372C437.607 221.606 441.052 225.019 443.273 231.134C445.026 236.686 445.202 243.207 445.202 253.376V495.452C445.202 505.622 445.025 512.167 443.28 517.696C441.052 523.832 437.518 527.223 431.414 529.449C425.873 531.205 419.361 531.25 409.212 531.25C408.93 531.532 51.5971 531.261 37.3039 531.25L36.8634 531.25C26.7134 531.25 19.7996 531.205 14.2808 529.456C8.15606 527.223 4.87887 523.81 2.65713 517.695C0.943962 512.267 1.05621 505.912 1.06205 496.125L1.06205 252.703C1.05621 242.917 0.943805 236.54 2.65005 231.132C4.87887 224.996 8.0753 221.606 14.1788 219.38C19.5324 217.683 25.7925 217.584 35.3662 217.579L410.228 217.579Z" fill="#F2F5F7"/>
<path fill-rule="evenodd" clip-rule="evenodd" d="M407.848 220.412C417.298 220.417 423.556 220.515 428.82 222.173C434.867 224.366 438.268 227.717 440.461 233.722C442.191 239.174 442.365 245.577 442.365 255.563V493.268C442.365 503.254 442.19 509.68 440.468 515.109C438.268 521.135 434.779 524.464 428.753 526.65C423.467 528.316 417.286 528.414 407.835 528.418L406.834 528.419C406.55 528.701 39.2397 528.419 39.2397 528.419L38.5537 528.419C28.9063 528.416 22.2685 528.335 16.9455 526.657C10.8989 524.464 7.66359 521.113 5.47022 515.108C3.77935 509.78 3.88968 503.541 3.8955 493.935L3.8955 254.895C3.88968 245.289 3.7792 239.029 5.46322 233.721C7.66359 227.695 10.8192 224.366 16.8448 222.18C22.13 220.514 28.3102 220.417 37.7617 220.412L407.848 220.412Z" stroke="#424B5A" stroke-width="0.742588"/>
<path fill-rule="evenodd" clip-rule="evenodd" d="M409.214 218.641C419.254 218.641 425.71 218.686 431.051 220.378C436.859 222.496 440.161 225.655 442.267 231.452C443.963 236.826 444.139 243.315 444.139 253.376V495.452C444.139 505.513 443.963 511.979 442.274 517.331C440.161 523.15 436.947 526.396 431.161 528.507C425.798 530.205 419.254 530.315 409.346 530.315H36.5127C26.3401 530.315 19.8835 530.205 14.5425 528.514C8.73513 526.396 5.76998 523.205 3.66299 517.408C1.96755 512.034 2.12456 505.513 2.12456 495.452V253.376C2.12456 243.315 1.96755 236.849 3.65591 231.497C5.76998 225.678 8.81553 222.496 14.6013 220.385C19.9639 218.686 26.3401 218.641 36.3803 218.641H409.214ZM68.7406 217.578H36.3803C26.2303 217.578 19.7192 217.623 14.1788 219.379C8.0753 221.605 4.87887 224.996 2.65005 231.132C0.905027 236.663 1.06226 243.207 1.06226 253.376V495.452C1.06226 505.622 0.905027 512.143 2.65713 517.694C4.87887 523.81 8.15606 527.223 14.2808 529.456C19.7996 531.204 26.7134 531.25 36.8634 531.25C36.8634 531.25 408.925 531.537 409.212 531.25C419.361 531.25 425.873 531.204 431.414 529.448C437.518 527.223 441.052 523.832 443.28 517.696C445.025 512.166 445.202 505.622 445.202 495.452V253.376C445.202 243.206 445.026 236.685 443.273 231.133C441.052 225.018 437.607 221.605 431.482 219.372C425.962 217.623 419.363 217.578 409.214 217.578H91.0526H68.7406Z" fill="#424B5A"/>
<path fill-rule="evenodd" clip-rule="evenodd" d="M412.968 374.832C412.968 381.482 418.36 386.874 425.01 386.874C431.661 386.874 437.052 381.482 437.052 374.832C437.052 368.181 431.661 362.79 425.01 362.79C418.36 362.79 412.968 368.181 412.968 374.832ZM414.031 374.832C414.031 368.778 418.956 363.852 425.01 363.852C431.064 363.852 435.99 368.778 435.99 374.832C435.99 380.886 431.064 385.811 425.01 385.811C418.956 385.811 414.031 380.886 414.031 374.832Z" fill="#424B5A"/>
<path fill-rule="evenodd" clip-rule="evenodd" d="M20.8962 362.79C19.527 362.79 18.417 363.9 18.417 365.269C18.417 366.638 19.527 367.748 20.8962 367.748C22.2655 367.748 23.3754 366.638 23.3754 365.269C23.3754 363.9 22.2655 362.79 20.8962 362.79Z" fill="#424B5A"/>
<path fill-rule="evenodd" clip-rule="evenodd" d="M20.8962 369.519C20.1138 369.519 19.4795 370.154 19.4795 370.936C19.4795 371.719 20.1138 372.353 20.8962 372.353C21.6786 372.353 22.3129 371.719 22.3129 370.936C22.3129 370.154 21.6786 369.519 20.8962 369.519Z" fill="#424B5A"/>
<path fill-rule="evenodd" clip-rule="evenodd" d="M41.7969 511.19H405.181V238.475H41.7969V511.19Z" fill="white"/>
<path fill-rule="evenodd" clip-rule="evenodd" d="M405.531 238.12H404.822H42.1468H41.4385V238.829V510.835V511.544H42.1468H404.822H405.531V510.835V238.829V238.12ZM42.1468 510.835H404.822V238.829H42.1468V510.835Z" fill="#424B5A"/>
<path d="M234.11 364.915H212.86C212.077 364.915 211.443 365.549 211.443 366.332V383.332C211.443 384.114 212.077 384.749 212.86 384.749H234.11C234.893 384.749 235.527 384.114 235.527 383.332V366.332C235.527 365.549 234.893 364.915 234.11 364.915Z" fill="white"/>
<path d="M212.86 366.332V383.332H234.11V366.332H212.86ZM212.86 364.915H234.11C234.893 364.915 235.527 365.549 235.527 366.332V383.332C235.527 384.114 234.893 384.749 234.11 384.749H212.86C212.077 384.749 211.443 384.114 211.443 383.332V366.332C211.443 365.549 212.077 364.915 212.86 364.915Z" fill="#C2D1D9"/>
<path d="M217.995 373.415C216.528 373.415 215.339 372.226 215.339 370.759C215.339 369.292 216.528 368.103 217.995 368.103C219.462 368.103 220.651 369.292 220.651 370.759C220.651 372.226 219.462 373.415 217.995 373.415ZM217.995 371.998C218.68 371.998 219.235 371.443 219.235 370.759C219.235 370.074 218.68 369.519 217.995 369.519C217.311 369.519 216.756 370.074 216.756 370.759C216.756 371.443 217.311 371.998 217.995 371.998Z" fill="#C2D1D9"/>
<path d="M216.546 381.71C216.268 381.985 215.82 381.983 215.544 381.706C215.269 381.428 215.271 380.979 215.549 380.704L221.374 374.928L224.658 377.784C224.953 378.041 224.984 378.488 224.728 378.784C224.471 379.079 224.024 379.11 223.728 378.853L221.437 376.861L216.546 381.71Z" fill="#C2D1D9"/>
<path d="M221.861 381.708C221.584 381.985 221.136 381.985 220.859 381.708C220.582 381.431 220.582 380.983 220.859 380.706L230.182 371.383L235.286 375.861C235.58 376.119 235.609 376.566 235.351 376.861C235.093 377.155 234.645 377.184 234.351 376.926L230.245 373.323L221.861 381.708Z" fill="#C2D1D9"/>
<path d="M1.77088 241.308H0V259.371H1.77088V241.308Z" fill="#424B5A"/>
</g>
<defs>
<clipPath id="clip0">
<rect width="259.906" height="531.492" fill="white" transform="translate(291.094)"/>
</clipPath>
<clipPath id="clip1">
<rect width="445.553" height="313.799" fill="white" transform="translate(0 217.578)"/>
</clipPath>
</defs>
</svg>
