<svg width="24" height="24" viewBox="0 0 24 24" fill="none" xmlns="http://www.w3.org/2000/svg">
<path fill-rule="evenodd" clip-rule="evenodd" d="M23.8732 5.23915L21.9116 3.13922C21.8336 3.04641 21.711 3 21.5995 3C21.4769 3 21.3655 3.04641 21.2875 3.13922L7.69024 17.3979L2.74174 12.2467C2.65258 12.1538 2.54112 12.1074 2.42967 12.1074C2.31822 12.1074 2.20676 12.1538 2.1176 12.2467L0.133743 14.3118C-0.0445811 14.4974 -0.0445811 14.7875 0.133743 14.9731L6.3751 21.4701C6.77633 21.8878 7.26672 22.1314 7.6791 22.1314C8.2698 22.1314 8.78248 21.6789 8.97195 21.4933H8.98309L23.8843 5.90046C24.0404 5.70323 24.0404 5.41318 23.8732 5.23915Z" fill="#D70115"/>
</svg>
