<svg width="25" height="20" viewBox="0 0 25 20" fill="none" xmlns="http://www.w3.org/2000/svg">
<path fill-rule="evenodd" clip-rule="evenodd" d="M13.9516 0.464521L14.0515 0.351472C14.4841 -0.0811089 15.1647 -0.114384 15.6355 0.251646L15.7485 0.351472L24.1485 8.75147L24.1982 8.80422L24.2644 8.88563L24.3504 9.01913L24.4145 9.1544L24.457 9.28081L24.4917 9.45829L24.5 9.6L24.4967 9.69029L24.4757 9.84087L24.4403 9.97457L24.3876 10.1079L24.3248 10.2249L24.2364 10.3505L24.1485 10.4485L15.7485 18.8485C15.2799 19.3172 14.5201 19.3172 14.0515 18.8485C13.6189 18.4159 13.5856 17.7353 13.9516 17.2645L14.0515 17.1515L20.4008 10.8H1.7C1.03726 10.8 0.5 10.2627 0.5 9.6C0.5 8.93726 1.03726 8.4 1.7 8.4H20.4032L14.0515 2.04853C13.6189 1.61595 13.5856 0.93527 13.9516 0.464521L14.0515 0.351472L13.9516 0.464521Z" fill="#D70115"/>
</svg>
