<svg width="16" height="20" viewBox="0 0 16 20" fill="none" xmlns="http://www.w3.org/2000/svg">
<path fill-rule="evenodd" clip-rule="evenodd" d="M8.96776 2.83733L9.03432 2.74475C9.3227 2.39048 9.77649 2.36323 10.0903 2.663L10.1657 2.74475L15.7657 9.62396L15.7988 9.66716L15.8429 9.73383L15.9003 9.84315L15.943 9.95393L15.9713 10.0575L15.9945 10.2028L16 10.3189L15.9978 10.3928L15.9838 10.5161L15.9602 10.6256L15.9251 10.7348L15.8832 10.8306L15.8242 10.9335L15.7657 11.0138L10.1657 17.893C9.85327 18.2768 9.34673 18.2768 9.03432 17.893C8.74593 17.5387 8.72374 16.9813 8.96776 16.5957L9.03432 16.5032L13.2672 11.3016H0.8C0.358172 11.3016 0 10.8616 0 10.3189C0 9.77611 0.358172 9.33612 0.8 9.33612H13.2688L9.03432 4.13456C8.74593 3.7803 8.72374 3.22285 8.96776 2.83733L9.03432 2.74475L8.96776 2.83733Z" fill="#F9F9FA"/>
</svg>
